<?xml version="1.0" encoding="utf-8"?>
<!-- Generator: Adobe Illustrator 27.7.0, SVG Export Plug-In . SVG Version: 6.00 Build 0)  -->
<svg version="1.1" xmlns="http://www.w3.org/2000/svg" xmlns:xlink="http://www.w3.org/1999/xlink" x="0px" y="0px"
	 viewBox="0 0 212.4 31.9" style="enable-background:new 0 0 212.4 31.9;" xml:space="preserve">
<style type="text/css">
	.st0{fill:#FFFFFF;}
	.st1{fill:#D51518;}
	.st2{fill:#252323;}
</style>
<g id="white">
	<rect y="0" class="st0" width="212.4" height="31.9"/>
</g>
<g id="Ebene_1">
	<g id="图层_2">
		<g id="图层_1-2">
			<g>
				<path class="st1" d="M212.3,12.9c-0.2-0.9-0.6-1.7-1.3-2.3c-0.6-0.6-1.4-1.1-2.3-1.5c-1-0.4-2.1-0.5-3.1-0.5
					c-0.9,0-1.8,0.1-2.7,0.4c-0.8,0.2-1.6,0.5-2.4,0.9c-0.7,0.4-1.4,0.8-2,1.3c-0.6,0.5-1.1,1-1.5,1.6c-0.3-1.2-1.1-2.3-2.1-3
					c-1.2-0.8-2.7-1.2-4.1-1.1c-0.9,0-1.8,0.1-2.7,0.3c-0.8,0.2-1.5,0.5-2.2,0.8c-0.6,0.3-1.2,0.7-1.7,1.1c-0.2,0.2-0.5,0.4-0.7,0.7
					l-1.3,5.3c0.3-0.3,0.7-0.6,1.1-0.8c0.7-0.4,1.6-0.6,2.4-0.6c1,0,1.6,0.2,1.9,0.8c0.3,0.5,0.4,1.1,0.2,1.7
					c-0.2,0.8-0.4,1.7-0.7,2.7c-0.2,1-0.6,2.4-1,4s-0.9,3.8-1.5,6.4h9c0.5-2.1,1-4,1.4-5.7c0.4-1.7,0.8-3.2,1.1-4.4s0.6-2.5,0.9-3.8
					c0.5-0.4,1-0.7,1.5-1.1c0.7-0.4,1.5-0.6,2.4-0.6c0.7-0.1,1.3,0.2,1.8,0.6c0.4,0.5,0.5,1.2,0.3,1.8c-0.2,0.8-0.4,1.7-0.7,2.7
					c-0.2,1-0.6,2.4-1,4s-0.9,3.8-1.5,6.4h9c1.1-4.8,2.2-9.8,3.4-15C212.5,14.9,212.5,13.9,212.3,12.9z"/>
				<path class="st2" d="M55.6,14.5c0.8-1.4,1.8-2.7,3-3.8v-0.1c-1.6,0-3.1,0.2-4.6,0.8c-1.3,0.4-2.5,1.1-3.5,2l0.6-2.2H42
					l-5.4,20.3h9.2l3.5-12.9c0.5-0.4,1.1-0.7,1.7-0.8c0.7-0.2,1.4-0.4,2.2-0.5c0.4,0,0.8,0,1.2,0C54.7,16.3,55.1,15.4,55.6,14.5z"/>
				<polygon class="st2" points="35.8,1.5 23.4,1.5 4.1,31.5 15.9,31.5 18.7,26.8 27.5,26.8 27,20.5 22.2,20.5 28.1,10.4 28.8,18.4 
					28.8,18.4 29.7,27.8 30,31.5 34.9,31.5 38.5,18.2 				"/>
				<path class="st1" d="M163.5,9.2l-0.6,2.3c-0.8-1-1.8-1.8-3-2.2c-1.3-0.5-2.7-0.7-4.1-0.7c-1.4,0-2.9,0.2-4.2,0.7
					c-1.3,0.5-2.6,1.3-3.6,2.2c-1.1,1-2,2.3-2.7,3.6c-0.8,1.5-1.3,3.2-1.4,4.9c-0.2,1.5-0.2,3.1,0.1,4.6c0.3,1.3,0.9,2.6,1.7,3.6
					c0.8,1,1.8,1.8,2.9,2.4c1.2,0.6,2.5,0.9,3.9,0.8c1.2,0,2.5-0.2,3.6-0.7c1.1-0.5,2-1.3,2.8-2.2l-0.5,2.3h9l5.3-21.8L163.5,9.2z
					 M161.7,22.2c-1.7,2.8-5,3.8-7.4,2.4s-3-4.9-1.4-7.7s5-3.8,7.4-2.4S163.4,19.4,161.7,22.2L161.7,22.2z"/>
				<path class="st2" d="M77,0.9l-2.5,10.6c-0.8-1-1.9-1.8-3.1-2.2c-1.3-0.5-2.7-0.7-4.1-0.7c-1.4,0-2.8,0.2-4.2,0.7
					c-1.3,0.5-2.6,1.2-3.6,2.2c-1.1,1-2,2.3-2.7,3.6c-0.8,1.5-1.3,3.2-1.5,4.9c-0.2,1.5-0.2,3.1,0.2,4.6c0.3,1.3,0.8,2.6,1.6,3.6
					c0.7,1,1.7,1.8,2.9,2.4c2.4,1.1,5.1,1.1,7.5,0.1c1.1-0.5,2-1.3,2.8-2.2L69.8,31h9L86,0.9H77z M73.4,22.4c-1.7,2.9-5.2,4-7.7,2.5
					s-3.1-5-1.4-7.9c1.7-2.8,5.2-4,7.7-2.4S75.1,19.5,73.4,22.4z"/>
				<path class="st2" d="M101.6,9.2h-1.3l0.9,1.3l-3.1,12.5c-0.6,0.5-1.2,0.9-1.9,1.2c-0.8,0.4-1.6,0.5-2.4,0.5
					c-0.8,0.1-1.6-0.2-2.2-0.7c-0.4-0.7-0.5-1.6-0.2-2.4c0.2-0.8,0.4-1.7,0.6-2.6l0.9-3.8c0.4-1.6,0.8-3.6,1.4-6h-9
					c-1.1,4.8-2.2,9.8-3.5,15c-0.2,0.9-0.2,1.8,0,2.7c0.2,0.9,0.6,1.7,1.1,2.4c0.6,0.7,1.4,1.3,2.3,1.7c1.1,0.5,2.3,0.7,3.5,0.6
					c1.6,0.1,3.3-0.3,4.8-0.9c1.2-0.5,2.2-1.2,3.1-2.1L96.3,31h9l5.2-21.8L101.6,9.2z"/>
				<path class="st1" d="M123.3,23.9c-3.9-2.3-4.8-7.8-2.2-12.1s7.9-6.1,11.8-3.7c1.2,0.7,2.1,1.8,2.8,3l-0.2,0.7l0.5-0.2l8.5-3.5
					c-0.5-1.1-1.2-2.2-2-3.1c-0.9-1-1.9-1.8-3.1-2.5c-1.3-0.8-2.7-1.4-4.1-1.7C133.5,0.2,131.8,0,130,0c-2.5,0-4.9,0.4-7.2,1.2
					c-2.2,0.7-4.2,1.9-6,3.3c-1.7,1.4-3.2,3.1-4.3,5c-1.1,2-1.8,4.1-2.1,6.4c-0.3,2.1-0.1,4.3,0.6,6.4c0.7,1.9,1.8,3.6,3.2,5
					c1.5,1.5,3.4,2.6,5.4,3.3c2.2,0.8,4.6,1.2,7,1.2c1.8,0,3.6-0.2,5.3-0.6c1.5-0.4,3-1,4.4-1.7c1.3-0.7,2.5-1.5,3.6-2.5
					c1-0.9,1.9-2,2.7-3.1l-7.7-3.5C132.2,24.5,127.1,26.1,123.3,23.9z"/>
				<polygon class="st1" points="183,9.2 174,9.2 168.8,31 177.7,31 				"/>
				<polygon class="st2" points="21.6,1.5 19.3,1.5 0,31.5 2.3,31.5 				"/>
			</g>
		</g>
	</g>
</g>
</svg>
