<svg xmlns="http://www.w3.org/2000/svg" xmlns:xlink="http://www.w3.org/1999/xlink" width="300px" height="221px" viewBox="0 0 300 221" version="1.1">
<g id="surface1">
<path style=" stroke:none;fill-rule:nonzero;fill:#ffffff;fill-opacity:1;" d="M 144.183594 0.0273438 C 130.308594 0.273438 117.828125 1.277344 105.113281 3.167969 C 82.515625 6.535156 60.933594 12.742188 43.015625 21.035156 C 39.824219 22.511719 36.460938 24.210938 33.8125 25.691406 C 31.714844 26.855469 29.503906 28.199219 29.570312 28.257812 C 29.625 28.3125 46.746094 36.628906 46.800781 36.628906 C 46.828125 36.628906 47.1875 36.425781 47.597656 36.175781 C 50.417969 34.460938 54.484375 32.386719 58.730469 30.488281 C 65.910156 27.28125 73.941406 24.402344 82.410156 21.996094 C 98.023438 17.554688 114.867188 14.777344 132.578125 13.714844 C 136.859375 13.457031 141.132812 13.308594 146.164062 13.246094 C 148.53125 13.214844 148.582031 13.214844 148.5625 13.300781 C 148.546875 13.351562 145.09375 20.785156 140.878906 29.820312 L 133.222656 46.253906 L 133.085938 46.230469 C 133.011719 46.21875 128.824219 44.957031 123.785156 43.433594 C 118.746094 41.910156 114.617188 40.667969 114.613281 40.671875 C 114.609375 40.671875 115.789062 44.410156 117.234375 48.976562 C 118.679688 53.539062 119.855469 57.277344 119.851562 57.285156 C 119.84375 57.289062 119.476562 57.316406 119.03125 57.34375 C 108.375 58.03125 98.160156 59.839844 87.277344 62.96875 C 78.722656 65.429688 69.414062 68.945312 62.785156 72.214844 L 61.644531 72.777344 L 62.394531 73.042969 C 64.957031 73.953125 70.445312 76.148438 76.835938 78.828125 L 79.4375 79.914062 L 80.441406 79.457031 C 88.082031 75.988281 96.996094 73.136719 106.984375 70.96875 C 107.734375 70.808594 108.351562 70.679688 108.359375 70.6875 C 108.367188 70.699219 108.425781 72.273438 108.484375 74.1875 C 108.542969 76.109375 108.605469 77.910156 108.617188 78.195312 L 108.636719 78.71875 L 98.550781 78.71875 C 93.007812 78.71875 88.476562 78.738281 88.484375 78.753906 C 88.496094 78.777344 91.726562 83.304688 95.667969 88.816406 C 99.613281 94.320312 102.839844 98.835938 102.84375 98.84375 C 102.847656 98.855469 100.46875 101.148438 97.546875 103.941406 C 91.355469 109.867188 91.824219 109.417969 91.847656 109.445312 C 91.859375 109.457031 98.542969 110.691406 106.695312 112.183594 C 114.847656 113.679688 121.503906 114.917969 121.484375 114.9375 C 121.46875 114.949219 121.003906 115.101562 120.460938 115.277344 C 114.257812 117.238281 106.796875 119.925781 102.023438 121.914062 C 99.648438 122.90625 96.824219 124.199219 95.769531 124.773438 C 95.429688 124.960938 95.429688 124.960938 95.558594 125.015625 C 95.769531 125.089844 99.757812 126.707031 102.507812 127.820312 C 105.800781 129.15625 108.9375 130.445312 110.972656 131.289062 L 112.582031 131.960938 L 113.996094 131.265625 C 116.316406 130.125 118.355469 129.203125 120.992188 128.117188 L 121.453125 127.925781 L 132.242188 127.617188 C 138.175781 127.445312 143.042969 127.320312 143.058594 127.339844 C 143.070312 127.351562 142.25 132.890625 141.226562 139.636719 L 139.367188 151.90625 L 139.039062 152.277344 C 138.261719 153.15625 137.636719 154.09375 137.101562 155.191406 C 136.421875 156.570312 136.082031 157.679688 135.84375 159.261719 C 135.730469 160.042969 135.730469 161.949219 135.84375 162.730469 C 136.144531 164.742188 136.789062 166.519531 137.804688 168.09375 C 138.460938 169.121094 139.542969 170.339844 140.480469 171.113281 C 142.125 172.472656 144.207031 173.460938 146.242188 173.851562 C 147.871094 174.167969 149.828125 174.167969 151.402344 173.851562 C 155.363281 173.058594 158.75 170.453125 160.523438 166.84375 C 161.234375 165.398438 161.628906 164.054688 161.820312 162.453125 C 161.910156 161.726562 161.890625 160.097656 161.796875 159.351562 C 161.441406 156.679688 160.410156 154.378906 158.652344 152.34375 L 158.265625 151.898438 L 156.40625 139.625 L 154.546875 127.347656 L 154.890625 127.332031 C 155.082031 127.332031 159.949219 127.457031 165.707031 127.621094 L 176.171875 127.921875 L 177.359375 128.417969 C 179.597656 129.351562 181.652344 130.28125 183.785156 131.332031 L 185.058594 131.957031 L 186.070312 131.535156 C 188.59375 130.480469 194.195312 128.195312 199.308594 126.125 C 200.832031 125.511719 202.109375 124.996094 202.140625 124.972656 C 202.203125 124.933594 200.195312 123.925781 198.761719 123.277344 C 193.558594 120.921875 185.773438 118.039062 176.957031 115.203125 C 176.460938 115.042969 176.085938 114.90625 176.125 114.898438 C 177.078125 114.71875 205.726562 109.472656 205.757812 109.472656 C 205.785156 109.472656 205.800781 109.457031 205.789062 109.433594 C 205.785156 109.414062 203.359375 107.078125 200.398438 104.246094 C 197.441406 101.417969 194.96875 99.046875 194.898438 98.980469 L 194.773438 98.859375 L 201.976562 88.800781 L 209.167969 78.738281 L 199.085938 78.726562 L 188.996094 78.71875 L 189.027344 77.894531 C 189.042969 77.445312 189.101562 75.648438 189.15625 73.898438 C 189.210938 72.148438 189.265625 70.710938 189.28125 70.699219 C 189.289062 70.683594 189.964844 70.816406 190.777344 70.996094 C 200.703125 73.160156 209.582031 75.996094 217.085938 79.414062 L 218.191406 79.917969 L 219.460938 79.382812 C 226.265625 76.515625 233.550781 73.597656 235.613281 72.910156 L 236.007812 72.777344 L 235.039062 72.300781 C 229.070312 69.371094 221.128906 66.269531 213.601562 63.9375 C 201.761719 60.277344 190.238281 58.089844 178.960938 57.371094 C 178.328125 57.332031 177.804688 57.289062 177.792969 57.277344 C 177.78125 57.269531 178.953125 53.542969 180.386719 49 C 181.828125 44.460938 183 40.726562 182.992188 40.707031 C 182.980469 40.683594 178.867188 41.917969 173.839844 43.4375 C 168.8125 44.953125 164.632812 46.214844 164.558594 46.226562 L 164.417969 46.253906 L 156.730469 29.761719 C 150.417969 16.230469 149.054688 13.265625 149.113281 13.234375 C 149.199219 13.203125 156.742188 13.300781 158.910156 13.367188 C 173.113281 13.78125 185.328125 14.894531 196.960938 16.839844 C 210.847656 19.15625 223.097656 22.582031 234.160156 27.242188 C 239.003906 29.28125 242.914062 31.199219 249.738281 34.894531 C 252.945312 36.628906 252.953125 36.628906 253.019531 36.628906 C 253.105469 36.628906 270.277344 28.53125 270.277344 28.496094 C 270.277344 28.453125 268.46875 27.378906 267.347656 26.753906 C 260.441406 22.902344 251.503906 18.910156 242.363281 15.585938 C 220.210938 7.53125 195.589844 2.484375 169.890625 0.71875 C 165.582031 0.421875 161.652344 0.238281 156.53125 0.0898438 C 154.972656 0.046875 145.835938 0 144.183594 0.0273438 Z M 155.722656 36.074219 C 159.4375 44.046875 162.480469 50.578125 162.484375 50.589844 C 162.488281 50.589844 165.871094 49.574219 170.003906 48.324219 C 174.136719 47.078125 177.523438 46.070312 177.542969 46.082031 C 177.554688 46.089844 174.9375 54.394531 171.722656 64.527344 C 168.519531 74.660156 165.894531 82.953125 165.898438 82.964844 C 165.90625 82.964844 170.363281 80.183594 175.800781 76.777344 C 181.242188 73.367188 185.695312 70.582031 185.695312 70.585938 C 185.699219 70.59375 185.625 72.992188 185.535156 75.917969 C 185.4375 78.84375 185.351562 81.472656 185.34375 81.761719 L 185.328125 82.277344 L 193.765625 82.277344 C 198.40625 82.277344 202.199219 82.289062 202.199219 82.300781 C 202.199219 82.3125 199.464844 86.144531 196.121094 90.816406 L 190.042969 99.3125 L 190.375 99.617188 C 190.554688 99.785156 192.40625 101.554688 194.492188 103.554688 C 197.828125 106.753906 198.261719 107.191406 198.175781 107.214844 C 198.113281 107.234375 191.582031 108.4375 183.648438 109.894531 C 175.714844 111.347656 169.21875 112.539062 169.210938 112.546875 C 169.203125 112.550781 170.738281 115.207031 172.613281 118.445312 C 174.5 121.683594 176.03125 124.339844 176.023438 124.34375 C 176.011719 124.347656 170.246094 124.191406 163.203125 123.988281 C 156.167969 123.785156 150.394531 123.625 150.390625 123.632812 C 150.390625 123.644531 151.238281 129.347656 152.300781 136.308594 C 153.355469 143.273438 154.203125 148.980469 154.191406 148.992188 C 154.175781 149.007812 153.933594 148.925781 153.640625 148.8125 C 152.046875 148.1875 150.542969 147.90625 148.824219 147.90625 C 147.109375 147.90625 145.585938 148.1875 144.03125 148.792969 C 143.703125 148.925781 143.433594 149.015625 143.421875 149.007812 C 143.417969 149.003906 144.277344 143.296875 145.328125 136.335938 C 146.386719 129.371094 147.234375 123.664062 147.222656 123.648438 C 147.207031 123.632812 141.449219 123.785156 134.417969 123.988281 C 127.390625 124.191406 121.628906 124.347656 121.621094 124.339844 C 121.609375 124.328125 123.144531 121.671875 125.019531 118.4375 L 128.441406 112.546875 L 128.292969 112.515625 C 128.210938 112.503906 121.707031 111.308594 113.839844 109.867188 C 105.96875 108.429688 99.496094 107.234375 99.449219 107.214844 C 99.378906 107.191406 100.128906 106.445312 103.363281 103.34375 C 105.5625 101.230469 107.414062 99.464844 107.476562 99.410156 L 107.589844 99.3125 L 101.519531 90.828125 C 98.179688 86.164062 95.445312 82.332031 95.445312 82.3125 C 95.445312 82.292969 99.238281 82.277344 103.871094 82.277344 L 112.292969 82.277344 L 112.292969 81.988281 C 112.292969 81.832031 112.210938 79.210938 112.113281 76.171875 C 112.011719 73.136719 111.9375 70.636719 111.945312 70.628906 C 111.957031 70.617188 111.992188 70.625 112.023438 70.636719 C 112.058594 70.652344 116.5 73.429688 121.894531 76.8125 C 127.285156 80.195312 131.703125 82.941406 131.714844 82.929688 C 131.71875 82.914062 129.101562 74.613281 125.894531 64.492188 C 122.6875 54.371094 120.078125 46.082031 120.097656 46.074219 C 120.109375 46.070312 123.5 47.082031 127.621094 48.324219 C 131.742188 49.570312 135.128906 50.578125 135.144531 50.5625 C 135.167969 50.539062 147.90625 23.234375 148.699219 21.507812 L 148.8125 21.261719 L 148.890625 21.417969 C 148.933594 21.507812 152.011719 28.101562 155.722656 36.074219 Z M 124.34375 71.410156 C 124.894531 73.152344 125.359375 74.625 125.371094 74.679688 C 125.394531 74.757812 124.324219 74.105469 120.96875 72 C 118.527344 70.46875 116.550781 69.207031 116.570312 69.1875 C 116.632812 69.136719 118.871094 68.808594 122.675781 68.292969 C 122.945312 68.253906 123.203125 68.230469 123.25 68.238281 C 123.328125 68.242188 123.484375 68.703125 124.34375 71.410156 Z M 175.777344 68.40625 C 176.890625 68.546875 179.164062 68.871094 180.414062 69.066406 C 180.804688 69.125 181.074219 69.183594 181.066406 69.210938 C 181.039062 69.269531 172.285156 74.753906 172.261719 74.726562 C 172.246094 74.707031 174.253906 68.34375 174.300781 68.261719 C 174.320312 68.238281 174.40625 68.226562 174.5 68.242188 C 174.589844 68.253906 175.167969 68.328125 175.777344 68.40625 Z M 175.777344 68.40625 "/>
<path style=" stroke:none;fill-rule:nonzero;fill:#ffffff;fill-opacity:1;" d="M 270.714844 194.113281 C 267.945312 194.363281 265.726562 195.289062 264.207031 196.8125 C 262.902344 198.125 262.25 199.597656 262.171875 201.441406 C 262.003906 205.085938 264.296875 207.632812 269.351562 209.441406 C 271.5 210.207031 272.546875 210.765625 273.152344 211.460938 C 274.109375 212.546875 273.921875 214.203125 272.75 215.039062 C 272.382812 215.296875 272.089844 215.441406 271.632812 215.582031 C 269.984375 216.105469 267.457031 215.847656 264.390625 214.84375 C 263.613281 214.589844 262.785156 214.273438 262.1875 214.003906 C 262.011719 213.925781 261.859375 213.859375 261.847656 213.859375 C 261.839844 213.859375 261.828125 215.023438 261.828125 216.449219 L 261.828125 219.039062 L 262.066406 219.160156 C 262.800781 219.527344 264.234375 219.988281 265.453125 220.238281 C 266.695312 220.492188 267.453125 220.570312 268.894531 220.597656 C 271.117188 220.640625 272.539062 220.453125 274.1875 219.910156 C 277.191406 218.914062 279.054688 216.960938 279.652344 214.183594 C 279.742188 213.757812 279.757812 213.566406 279.757812 212.632812 C 279.757812 211.484375 279.699219 211.054688 279.433594 210.25 C 278.9375 208.742188 277.8125 207.429688 276.136719 206.390625 C 275.570312 206.039062 274.421875 205.480469 273.691406 205.191406 C 271.632812 204.386719 271.0625 204.152344 270.480469 203.867188 C 269.648438 203.472656 269.230469 203.199219 268.835938 202.804688 C 267.972656 201.941406 267.960938 200.699219 268.800781 199.859375 C 269.390625 199.261719 270.21875 198.933594 271.402344 198.828125 C 273.050781 198.675781 275.976562 199.214844 278 200.039062 C 278.246094 200.140625 278.457031 200.214844 278.464844 200.210938 C 278.480469 200.1875 278.726562 195.675781 278.722656 195.46875 C 278.722656 195.332031 278.710938 195.316406 278.253906 195.136719 C 277.015625 194.644531 275.804688 194.351562 274.292969 194.179688 C 273.546875 194.09375 271.371094 194.050781 270.714844 194.113281 Z M 270.714844 194.113281 "/>
<path style=" stroke:none;fill-rule:nonzero;fill:#ffffff;fill-opacity:1;" d="M 291 194.09375 C 290.148438 194.175781 289.753906 194.226562 289.339844 194.300781 C 285.863281 194.953125 283.398438 196.832031 282.511719 199.507812 C 282.132812 200.640625 282.050781 201.921875 282.277344 203.082031 C 282.648438 205.015625 283.863281 206.597656 285.964844 207.882812 C 286.925781 208.46875 288.109375 209.007812 289.636719 209.546875 C 291.828125 210.328125 292.933594 211 293.464844 211.882812 C 293.746094 212.359375 293.839844 213.027344 293.699219 213.617188 C 293.453125 214.683594 292.570312 215.40625 291.136719 215.71875 C 290.710938 215.8125 290.527344 215.820312 289.589844 215.820312 C 288.457031 215.820312 287.945312 215.757812 286.761719 215.496094 C 285.171875 215.144531 283.089844 214.453125 282.144531 213.972656 C 282.015625 213.910156 281.898438 213.859375 281.886719 213.859375 C 281.871094 213.859375 281.863281 215.035156 281.863281 216.46875 L 281.863281 219.070312 L 282.289062 219.261719 C 283.773438 219.914062 285.714844 220.386719 287.675781 220.5625 C 288.359375 220.628906 290.269531 220.628906 290.953125 220.566406 C 296.210938 220.082031 299.453125 217.398438 299.765625 213.25 C 299.976562 210.425781 298.882812 208.210938 296.492188 206.621094 C 295.519531 205.972656 294.683594 205.570312 292.90625 204.886719 C 290.371094 203.910156 289.4375 203.433594 288.808594 202.78125 C 288.34375 202.300781 288.152344 201.789062 288.199219 201.128906 C 288.273438 200.050781 289.222656 199.222656 290.746094 198.910156 C 291.335938 198.792969 292.585938 198.78125 293.464844 198.890625 C 294.996094 199.09375 296.839844 199.558594 298.058594 200.058594 C 298.269531 200.144531 298.449219 200.214844 298.453125 200.207031 C 298.476562 200.183594 298.742188 195.382812 298.726562 195.351562 C 298.71875 195.335938 298.4375 195.214844 298.117188 195.085938 C 296.363281 194.398438 294.296875 194.050781 292.015625 194.074219 C 291.546875 194.074219 291.085938 194.089844 291 194.09375 Z M 291 194.09375 "/>
<path style=" stroke:none;fill-rule:nonzero;fill:#ffffff;fill-opacity:1;" d="M 64.824219 194.339844 C 63.15625 194.417969 61.78125 194.53125 60.40625 194.71875 L 59.675781 194.816406 L 59.675781 220.195312 L 65.539062 220.195312 L 65.539062 210.976562 L 65.738281 211.011719 C 66.828125 211.191406 68.710938 211.160156 70.222656 210.941406 C 73.367188 210.488281 75.863281 209.164062 77.132812 207.269531 C 77.96875 206.023438 78.402344 204.585938 78.488281 202.757812 C 78.59375 200.484375 77.820312 198.351562 76.371094 196.929688 C 74.898438 195.492188 73.035156 194.734375 70.144531 194.40625 C 69.371094 194.316406 66.238281 194.28125 64.824219 194.339844 Z M 69.136719 198.804688 C 71.210938 199.125 72.402344 200.234375 72.601562 202.039062 C 72.695312 202.914062 72.496094 203.867188 72.082031 204.585938 C 71.828125 205.027344 71.199219 205.636719 70.738281 205.898438 C 70.269531 206.167969 69.695312 206.378906 69.113281 206.503906 C 68.335938 206.675781 66.296875 206.683594 65.644531 206.523438 L 65.539062 206.496094 L 65.539062 202.710938 C 65.539062 199.511719 65.546875 198.925781 65.605469 198.90625 C 65.675781 198.878906 66.285156 198.792969 66.578125 198.769531 C 67.148438 198.714844 68.738281 198.738281 69.136719 198.804688 Z M 69.136719 198.804688 "/>
<path style=" stroke:none;fill-rule:nonzero;fill:#ffffff;fill-opacity:1;" d="M 184.523438 194.339844 C 182.867188 194.417969 180.910156 194.597656 179.808594 194.78125 C 179.570312 194.816406 179.363281 194.851562 179.34375 194.851562 C 179.320312 194.851562 179.308594 200.554688 179.308594 207.523438 L 179.308594 220.195312 L 185.171875 220.195312 L 185.171875 210.101562 L 186.542969 210.121094 C 187.847656 210.144531 187.9375 210.148438 188.371094 210.265625 C 189.132812 210.46875 189.671875 210.824219 190.109375 211.398438 C 190.644531 212.117188 190.871094 212.730469 191.421875 214.96875 C 192.027344 217.402344 192.539062 219.128906 192.894531 219.933594 L 193.011719 220.195312 L 199.109375 220.195312 L 199.042969 220.066406 C 198.839844 219.671875 198.414062 218.238281 197.769531 215.777344 C 196.941406 212.625 196.753906 212 196.378906 211.160156 C 195.984375 210.265625 195.417969 209.441406 194.898438 208.992188 C 194.550781 208.699219 194.0625 208.378906 193.773438 208.257812 C 193.632812 208.199219 193.523438 208.128906 193.523438 208.101562 C 193.523438 208.070312 193.699219 207.972656 193.914062 207.878906 C 194.78125 207.511719 195.804688 206.789062 196.390625 206.136719 C 197.703125 204.664062 198.28125 202.921875 198.097656 200.976562 C 197.910156 198.980469 197.167969 197.53125 195.777344 196.421875 C 194.34375 195.277344 192.628906 194.683594 189.96875 194.40625 C 189.121094 194.324219 185.847656 194.28125 184.523438 194.339844 Z M 189.183594 198.753906 C 190.988281 199.128906 191.960938 200.085938 192.183594 201.699219 C 192.277344 202.363281 192.152344 203.199219 191.878906 203.738281 C 191.324219 204.835938 190.320312 205.503906 188.792969 205.792969 C 188.398438 205.867188 188.101562 205.878906 186.761719 205.878906 L 185.195312 205.878906 L 185.195312 198.851562 L 185.421875 198.796875 C 186.054688 198.640625 188.492188 198.609375 189.183594 198.753906 Z M 189.183594 198.753906 "/>
<path style=" stroke:none;fill-rule:nonzero;fill:#ffffff;fill-opacity:1;" d="M 0 207.335938 L 0 220.195312 L 5.03125 220.195312 L 5.03125 209.78125 C 5.03125 204.054688 5.039062 199.378906 5.058594 199.390625 C 5.070312 199.40625 6.800781 204.085938 8.910156 209.792969 L 12.730469 220.171875 L 14.847656 220.1875 L 16.960938 220.195312 L 20.792969 209.804688 L 24.625 199.40625 L 24.636719 209.804688 L 24.648438 220.195312 L 29.722656 220.195312 L 29.722656 194.480469 L 21.253906 194.480469 L 18.097656 202.957031 C 16.363281 207.617188 14.914062 211.476562 14.890625 211.527344 C 14.847656 211.617188 14.363281 210.351562 11.644531 203.066406 L 8.453125 194.503906 L 4.226562 194.488281 L 0 194.480469 Z M 0 207.335938 "/>
<path style=" stroke:none;fill-rule:nonzero;fill:#ffffff;fill-opacity:1;" d="M 40.089844 195.136719 C 39.53125 196.914062 32.308594 220.148438 32.308594 220.171875 C 32.308594 220.1875 33.6875 220.195312 35.371094 220.195312 C 37.78125 220.195312 38.441406 220.179688 38.457031 220.132812 C 38.46875 220.105469 38.878906 218.625 39.367188 216.851562 L 40.265625 213.625 L 47.796875 213.625 L 48.730469 216.664062 C 49.242188 218.34375 49.695312 219.820312 49.730469 219.949219 L 49.804688 220.195312 L 56.175781 220.195312 L 56.148438 220.070312 C 56.128906 219.996094 54.402344 214.539062 52.308594 207.941406 C 50.21875 201.339844 48.398438 195.609375 48.273438 195.203125 L 48.042969 194.480469 L 40.296875 194.480469 Z M 44.003906 198.90625 C 44.019531 198.953125 44.257812 199.886719 44.535156 200.976562 C 45.148438 203.402344 45.183594 203.539062 46.132812 206.699219 C 46.550781 208.089844 46.894531 209.242188 46.894531 209.257812 C 46.894531 209.269531 45.589844 209.28125 44.003906 209.28125 C 41.277344 209.28125 41.117188 209.273438 41.140625 209.199219 C 41.152344 209.15625 41.519531 207.902344 41.953125 206.414062 C 42.761719 203.648438 42.941406 202.949219 43.523438 200.402344 C 43.703125 199.597656 43.859375 198.914062 43.871094 198.882812 C 43.894531 198.800781 43.976562 198.8125 44.003906 198.90625 Z M 44.003906 198.90625 "/>
<path style=" stroke:none;fill-rule:nonzero;fill:#ffffff;fill-opacity:1;" d="M 82.292969 207.335938 L 82.292969 220.195312 L 98.632812 220.195312 L 98.632812 215.339844 L 93.429688 215.328125 L 88.222656 215.316406 L 88.210938 204.894531 L 88.199219 194.480469 L 82.292969 194.480469 Z M 82.292969 207.335938 "/>
<path style=" stroke:none;fill-rule:nonzero;fill:#ffffff;fill-opacity:1;" d="M 102.136719 207.335938 L 102.136719 220.195312 L 118.847656 220.195312 L 118.847656 215.429688 L 108.046875 215.429688 L 108.054688 212.386719 L 108.070312 209.347656 L 112.882812 209.335938 L 117.691406 209.328125 L 117.691406 204.609375 L 112.882812 204.601562 L 108.070312 204.585938 L 108.070312 199.269531 L 113.183594 199.253906 L 118.292969 199.246094 L 118.292969 194.480469 L 102.136719 194.480469 Z M 102.136719 207.335938 "/>
<path style=" stroke:none;fill-rule:nonzero;fill:#ffffff;fill-opacity:1;" d="M 131.195312 194.558594 C 131.210938 194.605469 132.605469 200.386719 134.304688 207.40625 L 137.386719 220.171875 L 140.644531 220.1875 L 143.898438 220.195312 L 143.972656 219.886719 C 144.007812 219.710938 144.582031 217.167969 145.242188 214.230469 C 145.902344 211.292969 146.492188 208.671875 146.558594 208.402344 C 146.863281 207.113281 147.285156 204.882812 147.648438 202.710938 C 147.882812 201.296875 147.910156 201.152344 147.945312 201.191406 C 147.957031 201.207031 148.007812 201.574219 148.0625 202.019531 C 148.234375 203.503906 148.46875 205.082031 148.78125 206.851562 C 148.941406 207.777344 151.300781 219.695312 151.390625 220.023438 L 151.4375 220.195312 L 154.648438 220.1875 L 157.859375 220.171875 L 161.21875 207.382812 C 163.070312 200.347656 164.585938 194.566406 164.585938 194.535156 C 164.585938 194.488281 163.964844 194.480469 161.574219 194.488281 L 158.570312 194.503906 L 157.539062 199.566406 C 156.347656 205.410156 155.359375 210.792969 155.007812 213.359375 C 154.960938 213.6875 154.90625 213.949219 154.882812 213.949219 C 154.867188 213.949219 154.847656 213.933594 154.847656 213.910156 C 154.847656 213.820312 154.421875 210.925781 154.238281 209.8125 C 153.894531 207.617188 153.78125 207 152.246094 199.082031 L 151.363281 194.503906 L 145.046875 194.503906 L 143.925781 199.820312 C 142.328125 207.382812 141.746094 210.308594 141.296875 213.050781 C 141.136719 214.03125 141.113281 214.125 141.074219 214.085938 C 141.066406 214.074219 140.886719 213.046875 140.679688 211.800781 C 140.109375 208.347656 139.886719 207.113281 138.664062 200.601562 C 138.046875 197.285156 137.539062 194.554688 137.539062 194.527344 C 137.539062 194.492188 136.46875 194.480469 134.359375 194.480469 C 131.351562 194.480469 131.175781 194.484375 131.195312 194.558594 Z M 131.195312 194.558594 "/>
<path style=" stroke:none;fill-rule:nonzero;fill:#ffffff;fill-opacity:1;" d="M 168.414062 207.335938 L 168.414062 220.195312 L 174.324219 220.195312 L 174.324219 194.480469 L 168.414062 194.480469 Z M 168.414062 207.335938 "/>
<path style=" stroke:none;fill-rule:nonzero;fill:#ffffff;fill-opacity:1;" d="M 202.386719 207.335938 L 202.386719 220.195312 L 219.089844 220.195312 L 219.089844 215.429688 L 208.292969 215.429688 L 208.300781 212.386719 L 208.316406 209.347656 L 213.128906 209.335938 L 217.9375 209.328125 L 217.9375 204.609375 L 213.128906 204.601562 L 208.316406 204.585938 L 208.316406 199.269531 L 213.429688 199.253906 L 218.539062 199.246094 L 218.539062 194.480469 L 202.386719 194.480469 Z M 202.386719 207.335938 "/>
<path style=" stroke:none;fill-rule:nonzero;fill:#ffffff;fill-opacity:1;" d="M 222.554688 207.335938 L 222.554688 220.195312 L 238.890625 220.195312 L 238.890625 215.339844 L 233.691406 215.328125 L 228.484375 215.316406 L 228.472656 204.894531 L 228.460938 194.480469 L 222.554688 194.480469 Z M 222.554688 207.335938 "/>
<path style=" stroke:none;fill-rule:nonzero;fill:#ffffff;fill-opacity:1;" d="M 242.445312 207.335938 L 242.445312 220.195312 L 259.109375 220.195312 L 259.109375 215.429688 L 248.351562 215.429688 L 248.351562 209.328125 L 257.953125 209.328125 L 257.953125 204.609375 L 248.351562 204.609375 L 248.351562 199.246094 L 258.554688 199.246094 L 258.554688 194.480469 L 242.445312 194.480469 Z M 242.445312 207.335938 "/>
</g>
</svg>