<?xml version="1.0" standalone="no"?>
<!DOCTYPE svg PUBLIC "-//W3C//DTD SVG 20010904//EN"
 "http://www.w3.org/TR/2001/REC-SVG-20010904/DTD/svg10.dtd">
<svg version="1.0" xmlns="http://www.w3.org/2000/svg"
 width="6500.000000pt" height="4778.000000pt" viewBox="0 0 6500.000000 4778.000000"
 preserveAspectRatio="xMidYMid meet">

<g transform="translate(0.000000,4778.000000) scale(0.100000,-0.100000)"
fill="#000000" stroke="none">
<path d="M31240 47774 c-3006 -53 -5710 -270 -8465 -679 -4897 -728 -9573
-2070 -13455 -3863 -691 -319 -1420 -687 -1994 -1007 -454 -252 -933 -542
-919 -555 12 -12 3721 -1810 3733 -1810 6 0 84 44 173 98 611 371 1492 820
2412 1230 1556 693 3296 1316 5130 1836 3384 960 7033 1561 10870 1791 928 55
1854 87 2944 101 513 7 524 7 519 -12 -3 -11 -751 -1618 -1664 -3572 l-1659
-3553 -30 5 c-16 3 -923 275 -2015 605 -1092 329 -1986 598 -1987 597 -1 0
255 -808 568 -1795 313 -987 568 -1795 567 -1797 -2 -1 -82 -7 -178 -13 -2309
-148 -4522 -539 -6880 -1216 -1853 -532 -3870 -1292 -5307 -1999 l-247 -122
163 -57 c555 -197 1744 -672 3129 -1251 l564 -235 217 99 c1655 750 3587 1367
5751 1835 162 35 296 63 298 61 2 -2 14 -343 27 -757 13 -415 26 -805 29 -866
l4 -113 -2185 0 c-1201 0 -2183 -4 -2181 -8 2 -5 702 -984 1556 -2175 855
-1191 1554 -2167 1555 -2169 1 -2 -515 -498 -1148 -1102 -1341 -1281 -1240
-1184 -1235 -1190 3 -2 1451 -269 3217 -592 1767 -324 3209 -591 3205 -595 -4
-3 -104 -36 -222 -74 -1344 -424 -2961 -1005 -3995 -1435 -515 -214 -1127
-494 -1355 -618 -74 -41 -74 -41 -46 -52 46 -17 910 -366 1506 -607 713 -289
1393 -567 1834 -750 l349 -145 306 150 c503 247 945 446 1516 681 l100 41
2337 67 c1286 37 2340 64 2344 60 3 -3 -175 -1200 -397 -2659 l-403 -2653 -71
-80 c-168 -190 -304 -393 -420 -630 -147 -298 -221 -538 -272 -880 -25 -169
-25 -581 0 -750 65 -435 205 -819 425 -1160 142 -222 376 -485 580 -653 356
-293 807 -507 1248 -592 353 -68 777 -68 1118 0 858 172 1592 735 1976 1515
154 313 240 604 281 950 19 157 16 509 -5 670 -77 578 -301 1076 -682 1516
l-83 96 -403 2654 -403 2654 75 3 c41 1 1096 -27 2343 -62 l2268 -65 257 -107
c485 -202 930 -403 1392 -630 l276 -135 219 91 c547 228 1760 722 2869 1170
330 132 606 244 613 249 14 8 -421 226 -732 366 -1127 510 -2814 1133 -4725
1746 -107 35 -188 64 -180 66 207 39 6414 1173 6421 1173 6 0 9 4 7 8 -1 5
-527 510 -1168 1122 -641 612 -1177 1124 -1192 1139 l-27 26 1560 2175 1559
2175 -2185 3 -2186 2 7 178 c3 97 16 486 28 864 12 378 24 689 27 692 2 3 148
-26 324 -65 2151 -467 4074 -1081 5700 -1820 l240 -109 275 116 c1474 620
3053 1251 3500 1399 l85 29 -210 103 c-1293 634 -3014 1304 -4645 1808 -2565
792 -5062 1265 -7505 1420 -137 9 -251 18 -253 20 -3 2 251 808 562 1790 312
982 566 1789 564 1793 -2 5 -894 -261 -1983 -590 -1089 -328 -1994 -600 -2011
-603 l-30 -6 -1666 3566 c-1367 2926 -1663 3567 -1650 3573 19 7 1653 -14
2122 -28 3078 -90 5725 -331 8245 -751 3009 -501 5663 -1242 8060 -2249 1049
-441 1896 -856 3375 -1655 695 -375 696 -375 711 -375 18 0 3739 1751 3739
1759 0 9 -392 241 -635 376 -1496 833 -3432 1696 -5413 2415 -4800 1741
-10134 2833 -15702 3215 -934 64 -1785 104 -2895 136 -338 9 -2317 19 -2675
13z m2500 -7794 c805 -1724 1464 -3136 1465 -3138 1 -1 734 219 1629 489 896
270 1630 488 1633 485 3 -2 -564 -1797 -1260 -3988 -695 -2191 -1263 -3984
-1262 -3986 1 -1 967 601 2145 1338 1179 737 2144 1339 2144 1338 1 -2 -15
-520 -35 -1153 -21 -632 -39 -1201 -41 -1263 l-3 -112 1828 0 c1005 0 1827 -2
1827 -5 0 -2 -593 -831 -1317 -1841 l-1317 -1837 72 -66 c39 -36 440 -419 892
-851 723 -692 817 -786 798 -792 -13 -4 -1429 -264 -3148 -579 -1719 -314
-3126 -572 -3128 -574 -1 -1 331 -575 738 -1275 408 -700 740 -1274 738 -1275
-2 -1 -1251 33 -2777 77 -1525 43 -2775 78 -2776 76 -1 -2 184 -1235 413
-2740 229 -1506 413 -2740 410 -2743 -3 -3 -56 15 -119 39 -345 135 -671 196
-1044 196 -371 0 -701 -61 -1038 -192 -71 -28 -130 -48 -132 -46 -1 1 185
1235 413 2740 229 1506 413 2740 410 2743 -3 3 -1251 -30 -2774 -73 -1523 -44
-2771 -78 -2773 -76 -2 2 330 576 737 1276 l741 1273 -32 7 c-18 3 -1427 261
-3132 573 -1705 311 -3108 569 -3118 573 -15 6 148 167 848 837 477 457 878
839 891 851 l25 21 -1315 1834 c-724 1009 -1316 1837 -1316 1842 0 4 821 7
1825 7 l1825 0 0 63 c0 34 -18 600 -39 1257 -22 657 -38 1197 -36 1199 2 2 10
1 17 -2 7 -3 969 -604 2138 -1335 1169 -731 2126 -1326 2128 -1323 1 4 -566
1798 -1261 3987 -695 2188 -1260 3980 -1256 3982 3 1 737 -218 1630 -487 893
-269 1627 -487 1630 -483 5 5 2765 5908 2937 6281 l25 54 17 -34 c9 -19 676
-1445 1480 -3169z m-6799 -7640 c120 -377 220 -695 223 -707 5 -17 -227 124
-954 579 -529 331 -957 604 -953 608 14 12 499 83 1323 194 58 8 114 13 124
12 17 -1 51 -101 237 -686z m11144 649 c241 -30 734 -100 1005 -142 85 -13
143 -26 141 -32 -6 -12 -1902 -1198 -1907 -1192 -4 4 431 1380 441 1398 4 5
23 7 43 4 20 -3 145 -19 277 -36z"/>
<path d="M58655 5810 c-600 -55 -1081 -255 -1410 -584 -283 -284 -424 -603
-441 -1001 -36 -788 460 -1339 1556 -1730 465 -166 692 -286 823 -436 207
-235 167 -593 -87 -774 -80 -56 -143 -87 -242 -118 -357 -113 -905 -57 -1569
160 -169 55 -348 123 -478 182 -38 17 -71 31 -73 31 -2 0 -4 -252 -4 -560 l0
-560 51 -26 c159 -80 470 -179 734 -233 269 -55 433 -72 746 -78 481 -9 789
31 1146 149 651 215 1055 637 1184 1238 20 92 23 133 23 335 0 248 -12 341
-70 515 -108 326 -351 610 -714 835 -123 76 -372 197 -530 259 -446 174 -570
225 -696 286 -180 86 -271 145 -356 230 -187 187 -190 455 -8 637 128 129 308
200 564 223 357 33 991 -84 1429 -262 54 -22 99 -38 101 -37 3 5 57 981 56
1025 0 30 -3 33 -102 72 -268 106 -530 170 -858 207 -161 19 -633 28 -775 15z"/>
<path d="M63050 5813 c-185 -17 -270 -28 -360 -44 -753 -141 -1287 -547 -1479
-1126 -82 -245 -100 -522 -51 -773 80 -418 344 -760 799 -1038 208 -127 465
-243 796 -360 475 -168 714 -314 829 -505 61 -103 81 -247 51 -375 -54 -230
-245 -386 -555 -454 -93 -20 -132 -22 -335 -22 -246 0 -357 13 -613 70 -345
76 -796 225 -1001 329 -28 14 -53 25 -56 25 -3 0 -5 -254 -5 -564 l0 -563 93
-41 c321 -141 742 -243 1167 -281 148 -14 562 -14 710 -1 1139 104 1841 685
1909 1582 46 610 -191 1089 -709 1433 -211 140 -392 227 -777 375 -549 211
-751 314 -888 455 -101 104 -142 215 -132 357 16 234 222 413 552 480 128 26
399 28 589 4 332 -43 731 -144 995 -252 46 -19 85 -34 86 -32 5 5 63 1043 59
1050 -2 3 -62 29 -132 57 -380 149 -828 224 -1322 219 -102 0 -201 -3 -220 -5z"/>
<path d="M14045 5760 c-361 -16 -659 -41 -957 -81 l-158 -22 0 -2743 0 -2744
635 0 635 0 0 996 0 997 43 -7 c237 -39 644 -32 972 15 681 98 1222 384 1497
794 181 269 275 580 294 975 23 492 -145 953 -459 1260 -319 311 -723 475
-1349 546 -167 19 -846 27 -1153 14z m935 -965 c449 -69 707 -309 750 -700 20
-189 -22 -395 -112 -550 -55 -95 -191 -227 -292 -284 -101 -58 -226 -104 -351
-131 -169 -37 -611 -39 -752 -4 l-23 6 0 818 c0 692 2 819 14 823 16 6 148 25
211 30 124 11 468 6 555 -8z"/>
<path d="M39980 5760 c-359 -17 -783 -56 -1021 -95 -52 -8 -97 -15 -101 -15
-5 0 -8 -1233 -8 -2740 l0 -2740 635 0 635 0 0 1091 0 1091 298 -4 c282 -5
302 -6 396 -31 165 -44 282 -121 376 -245 116 -155 165 -288 285 -772 131
-526 242 -899 319 -1073 l25 -57 661 0 661 0 -15 28 c-44 85 -136 395 -276
927 -179 682 -220 817 -301 999 -86 193 -208 371 -321 468 -75 64 -181 133
-244 159 -30 13 -54 28 -54 34 0 7 38 28 85 48 187 79 410 236 537 377 284
318 409 695 369 1115 -41 432 -201 746 -503 986 -310 247 -682 375 -1258 435
-184 18 -893 27 -1180 14z m1010 -954 c391 -81 602 -288 650 -637 20 -143 -7
-324 -66 -441 -120 -237 -338 -382 -669 -444 -85 -16 -150 -19 -440 -19 l-340
0 0 760 0 760 50 12 c137 34 665 40 815 9z"/>
<path d="M0 2950 l0 -2780 545 0 545 0 0 2252 c0 1238 2 2249 6 2246 3 -3 378
-1015 834 -2249 l828 -2244 459 -3 458 -2 830 2247 830 2248 3 -2248 2 -2247
550 0 550 0 0 2780 0 2780 -917 0 -918 0 -684 -1833 c-376 -1007 -689 -1842
-695 -1853 -9 -19 -114 255 -703 1830 l-691 1851 -916 3 -916 2 0 -2780z"/>
<path d="M8686 5588 c-121 -384 -1686 -5408 -1686 -5413 0 -3 299 -5 664 -5
522 0 665 3 669 13 2 6 91 326 197 710 l194 697 816 0 816 0 202 -657 c111
-362 209 -682 217 -710 l16 -53 690 0 691 0 -7 27 c-4 16 -378 1196 -831 2623
-454 1427 -848 2666 -875 2753 l-50 157 -839 0 -839 0 -45 -142z m848 -815 c3
-10 55 -212 115 -448 133 -524 141 -553 347 -1237 90 -301 164 -550 164 -553
0 -3 -282 -5 -626 -5 -591 0 -625 1 -620 18 3 9 82 280 176 602 175 598 214
749 340 1300 39 173 73 321 75 328 6 18 23 15 29 -5z"/>
<path d="M17830 2950 l0 -2780 1770 0 1770 0 0 525 0 525 -1127 2 -1128 3 -3
2253 -2 2252 -640 0 -640 0 0 -2780z"/>
<path d="M22130 2950 l0 -2780 1810 0 1810 0 0 515 0 515 -1170 0 -1170 0 2
658 3 657 1043 3 1042 2 0 510 0 510 -1042 2 -1043 3 0 575 0 575 1108 3 1107
2 0 515 0 515 -1750 0 -1750 0 0 -2780z"/>
<path d="M28426 5713 c3 -10 305 -1260 673 -2778 l668 -2760 706 -3 705 -2 16
67 c8 38 132 588 275 1223 143 635 271 1202 285 1260 66 279 158 761 236 1230
51 306 57 337 65 329 2 -3 13 -83 25 -179 37 -321 88 -662 156 -1045 35 -200
546 -2777 565 -2848 l10 -37 696 2 696 3 728 2765 c401 1521 729 2771 729
2778 0 10 -134 12 -652 10 l-651 -3 -224 -1095 c-258 -1263 -472 -2427 -548
-2982 -10 -71 -22 -128 -27 -128 -4 0 -8 4 -8 9 0 19 -92 645 -131 886 -75
474 -100 608 -432 2320 l-192 990 -684 0 -684 0 -243 -1150 c-346 -1635 -472
-2267 -570 -2860 -34 -212 -39 -233 -48 -224 -2 2 -41 225 -85 494 -124 747
-172 1014 -437 2422 -134 717 -244 1307 -244 1313 0 7 -232 10 -689 10 -651 0
-689 -1 -685 -17z"/>
<path d="M36490 2950 l0 -2780 640 0 640 0 0 2780 0 2780 -640 0 -640 0 0
-2780z"/>
<path d="M43850 2950 l0 -2780 1810 0 1810 0 0 515 0 515 -1170 0 -1170 0 2
658 3 657 1043 3 1042 2 0 510 0 510 -1042 2 -1043 3 0 575 0 575 1108 3 1107
2 0 515 0 515 -1750 0 -1750 0 0 -2780z"/>
<path d="M48220 2950 l0 -2780 1770 0 1770 0 0 525 0 525 -1127 2 -1128 3 -3
2253 -2 2252 -640 0 -640 0 0 -2780z"/>
<path d="M52530 2950 l0 -2780 1805 0 1805 0 0 515 0 515 -1165 0 -1165 0 0
660 0 660 1040 0 1040 0 0 510 0 510 -1040 0 -1040 0 0 580 0 580 1105 0 1105
0 0 515 0 515 -1745 0 -1745 0 0 -2780z"/>
</g>
</svg>
