<?xml version="1.0" encoding="UTF-8"?>
<svg xmlns="http://www.w3.org/2000/svg" xmlns:xlink="http://www.w3.org/1999/xlink" width="500px" height="368px" viewBox="0 0 500 368" version="1.1">
<g id="surface1">
<path style=" stroke:none;fill-rule:nonzero;fill:rgb(0%,0%,0%);fill-opacity:1;" d="M 240.308594 0.046875 C 217.183594 0.453125 196.382812 2.125 175.191406 5.277344 C 137.523438 10.882812 101.554688 21.21875 71.691406 35.027344 C 66.375 37.484375 60.769531 40.316406 56.355469 42.78125 C 52.859375 44.71875 49.175781 46.953125 49.285156 47.054688 C 49.375 47.144531 77.910156 60.996094 78 60.996094 C 78.046875 60.996094 78.644531 60.65625 79.332031 60.238281 C 84.03125 57.382812 90.808594 53.925781 97.882812 50.765625 C 109.851562 45.429688 123.238281 40.632812 137.347656 36.628906 C 163.375 29.234375 191.445312 24.605469 220.960938 22.835938 C 228.101562 22.410156 235.222656 22.164062 243.609375 22.058594 C 247.554688 22.003906 247.636719 22.003906 247.601562 22.148438 C 247.578125 22.234375 241.820312 34.609375 234.800781 49.65625 L 222.039062 77.019531 L 221.808594 76.980469 C 221.683594 76.960938 214.707031 74.863281 206.308594 72.324219 C 197.910156 69.789062 191.03125 67.71875 191.023438 67.726562 C 191.015625 67.726562 192.984375 73.949219 195.390625 81.550781 C 197.800781 89.148438 199.761719 95.375 199.753906 95.390625 C 199.738281 95.394531 199.125 95.441406 198.382812 95.488281 C 180.625 96.628906 163.601562 99.640625 145.460938 104.855469 C 131.207031 108.949219 115.691406 114.804688 104.640625 120.25 L 102.738281 121.1875 L 103.992188 121.628906 C 108.261719 123.144531 117.410156 126.800781 128.058594 131.261719 L 132.398438 133.070312 L 134.070312 132.308594 C 146.800781 126.535156 161.660156 121.78125 178.308594 118.175781 C 179.554688 117.90625 180.585938 117.691406 180.601562 117.707031 C 180.613281 117.722656 180.707031 120.347656 180.808594 123.535156 C 180.90625 126.734375 181.007812 129.734375 181.03125 130.207031 L 181.0625 131.078125 L 164.253906 131.078125 C 155.015625 131.078125 147.460938 131.109375 147.476562 131.136719 C 147.492188 131.175781 152.875 138.714844 159.445312 147.890625 C 166.023438 157.058594 171.398438 164.578125 171.40625 164.59375 C 171.414062 164.609375 167.445312 168.429688 162.578125 173.078125 C 152.261719 182.945312 153.039062 182.195312 153.078125 182.246094 C 153.097656 182.261719 164.238281 184.316406 177.824219 186.804688 C 191.414062 189.296875 202.507812 191.355469 202.476562 191.386719 C 202.445312 191.410156 201.675781 191.664062 200.769531 191.953125 C 190.429688 195.21875 177.992188 199.695312 170.039062 203.007812 C 166.078125 204.65625 161.371094 206.808594 159.613281 207.765625 C 159.046875 208.082031 159.046875 208.082031 159.261719 208.167969 C 159.613281 208.296875 166.261719 210.984375 170.847656 212.84375 C 176.332031 215.066406 181.5625 217.210938 184.953125 218.617188 L 187.636719 219.734375 L 189.992188 218.578125 C 193.863281 216.675781 197.261719 215.144531 201.65625 213.335938 L 202.421875 213.019531 L 220.402344 212.5 C 230.292969 212.21875 238.402344 212.011719 238.429688 212.042969 C 238.453125 212.0625 237.082031 221.28125 235.375 232.519531 L 232.277344 252.949219 L 231.730469 253.566406 C 230.4375 255.027344 229.394531 256.59375 228.5 258.417969 C 227.371094 260.714844 226.800781 262.5625 226.40625 265.195312 C 226.214844 266.496094 226.214844 269.671875 226.40625 270.972656 C 226.90625 274.320312 227.984375 277.28125 229.675781 279.902344 C 230.769531 281.613281 232.570312 283.640625 234.136719 284.933594 C 236.875 287.191406 240.347656 288.839844 243.738281 289.492188 C 246.453125 290.015625 249.714844 290.015625 252.339844 289.492188 C 258.9375 288.167969 264.585938 283.832031 267.539062 277.824219 C 268.722656 275.414062 269.382812 273.175781 269.699219 270.507812 C 269.847656 269.300781 269.820312 266.589844 269.660156 265.347656 C 269.070312 260.898438 267.347656 257.0625 264.417969 253.675781 L 263.777344 252.933594 L 260.675781 232.496094 L 257.578125 212.054688 L 258.152344 212.03125 C 258.46875 212.027344 266.582031 212.238281 276.179688 212.511719 L 293.621094 213.011719 L 295.601562 213.835938 C 299.332031 215.390625 302.753906 216.9375 306.308594 218.6875 L 308.429688 219.726562 L 310.117188 219.027344 C 314.324219 217.269531 323.65625 213.464844 332.183594 210.015625 C 334.722656 209 336.847656 208.136719 336.902344 208.097656 C 337.007812 208.035156 333.660156 206.355469 331.269531 205.277344 C 322.597656 201.351562 309.621094 196.554688 294.925781 191.832031 C 294.101562 191.5625 293.476562 191.339844 293.539062 191.324219 C 295.132812 191.023438 342.878906 182.289062 342.929688 182.289062 C 342.976562 182.289062 343 182.261719 342.984375 182.226562 C 342.976562 182.191406 338.929688 178.300781 334 173.585938 C 329.070312 168.875 324.945312 164.929688 324.828125 164.816406 L 324.621094 164.613281 L 336.625 147.867188 L 348.613281 131.113281 L 331.808594 131.09375 L 314.992188 131.078125 L 315.046875 129.707031 C 315.070312 128.957031 315.171875 125.964844 315.261719 123.050781 C 315.351562 120.140625 315.445312 117.746094 315.46875 117.722656 C 315.484375 117.699219 316.605469 117.921875 317.960938 118.222656 C 334.507812 121.820312 349.300781 126.546875 361.808594 132.238281 L 363.652344 133.078125 L 365.769531 132.183594 C 377.109375 127.410156 389.253906 122.550781 392.691406 121.410156 L 393.347656 121.1875 L 391.730469 120.394531 C 381.785156 115.511719 368.546875 110.351562 356 106.46875 C 336.269531 100.371094 317.0625 96.726562 298.269531 95.535156 C 297.214844 95.464844 296.339844 95.394531 296.324219 95.378906 C 296.300781 95.363281 298.253906 89.160156 300.644531 81.59375 C 303.046875 74.03125 305 67.816406 304.984375 67.785156 C 304.96875 67.746094 298.109375 69.796875 289.730469 72.332031 C 281.355469 74.855469 274.390625 76.953125 274.261719 76.976562 L 274.03125 77.019531 L 261.214844 49.558594 C 250.699219 27.023438 248.421875 22.089844 248.523438 22.039062 C 248.667969 21.988281 261.238281 22.148438 264.847656 22.257812 C 288.523438 22.949219 308.882812 24.804688 328.269531 28.042969 C 351.414062 31.898438 371.832031 37.605469 390.269531 45.363281 C 398.339844 48.757812 404.855469 51.953125 416.230469 58.105469 C 421.578125 60.996094 421.585938 60.996094 421.699219 60.996094 C 421.839844 60.996094 450.460938 47.507812 450.460938 47.449219 C 450.460938 47.378906 447.445312 45.589844 445.578125 44.550781 C 434.070312 38.136719 419.175781 31.488281 403.9375 25.953125 C 367.015625 12.542969 325.984375 4.136719 283.152344 1.195312 C 275.96875 0.703125 269.421875 0.394531 260.882812 0.148438 C 258.285156 0.078125 243.0625 0 240.308594 0.046875 Z M 259.539062 60.070312 C 265.730469 73.347656 270.800781 84.222656 270.808594 84.238281 C 270.816406 84.242188 276.453125 82.550781 283.339844 80.46875 C 290.230469 78.390625 295.875 76.714844 295.902344 76.734375 C 295.921875 76.75 291.5625 90.574219 286.207031 107.449219 C 280.863281 124.324219 276.492188 138.132812 276.5 138.148438 C 276.507812 138.152344 283.9375 133.519531 293 127.84375 C 302.070312 122.167969 309.492188 117.53125 309.492188 117.535156 C 309.5 117.550781 309.375 121.542969 309.222656 126.417969 C 309.0625 131.285156 308.921875 135.667969 308.90625 136.144531 L 308.882812 137.007812 L 322.945312 137.007812 C 330.679688 137.007812 337 137.023438 337 137.046875 C 337 137.0625 332.441406 143.445312 326.867188 151.222656 L 316.738281 165.371094 L 317.292969 165.878906 C 317.59375 166.15625 320.679688 169.105469 324.152344 172.433594 C 329.714844 177.761719 330.4375 178.488281 330.292969 178.53125 C 330.191406 178.5625 319.300781 180.566406 306.078125 182.992188 C 292.855469 185.410156 282.03125 187.394531 282.015625 187.410156 C 282.007812 187.417969 284.5625 191.839844 287.691406 197.230469 C 290.832031 202.621094 293.382812 207.042969 293.371094 207.050781 C 293.355469 207.058594 283.746094 206.796875 272.007812 206.457031 C 260.277344 206.125 250.660156 205.855469 250.652344 205.871094 C 250.648438 205.886719 252.066406 215.382812 253.832031 226.972656 C 255.59375 238.570312 257.007812 248.074219 256.984375 248.097656 C 256.960938 248.121094 256.554688 247.984375 256.070312 247.796875 C 253.414062 246.757812 250.90625 246.289062 248.039062 246.289062 C 245.183594 246.289062 242.644531 246.757812 240.054688 247.765625 C 239.507812 247.984375 239.054688 248.136719 239.039062 248.121094 C 239.03125 248.113281 240.460938 238.609375 242.214844 227.019531 C 243.976562 215.421875 245.390625 205.917969 245.371094 205.894531 C 245.347656 205.871094 235.746094 206.125 224.03125 206.457031 C 212.316406 206.796875 202.714844 207.058594 202.699219 207.042969 C 202.683594 207.027344 205.238281 202.605469 208.367188 197.214844 L 214.070312 187.410156 L 213.820312 187.359375 C 213.683594 187.335938 202.84375 185.347656 189.730469 182.945312 C 176.617188 180.550781 165.824219 178.5625 165.746094 178.53125 C 165.628906 178.488281 166.882812 177.246094 172.269531 172.085938 C 175.9375 168.566406 179.023438 165.625 179.125 165.53125 L 179.316406 165.371094 L 169.199219 151.246094 C 163.632812 143.476562 159.074219 137.097656 159.074219 137.0625 C 159.074219 137.03125 165.394531 137.007812 173.117188 137.007812 L 187.15625 137.007812 L 187.15625 136.523438 C 187.15625 136.261719 187.015625 131.898438 186.855469 126.839844 C 186.683594 121.78125 186.5625 117.621094 186.578125 117.605469 C 186.59375 117.589844 186.652344 117.601562 186.707031 117.621094 C 186.761719 117.644531 194.164062 122.273438 203.15625 127.902344 C 212.144531 133.535156 219.507812 138.113281 219.523438 138.09375 C 219.53125 138.0625 215.167969 124.246094 209.824219 107.386719 C 204.476562 90.539062 200.128906 76.734375 200.160156 76.71875 C 200.183594 76.714844 205.832031 78.398438 212.699219 80.46875 C 219.570312 82.542969 225.214844 84.222656 225.238281 84.191406 C 225.277344 84.152344 246.507812 38.691406 247.832031 35.816406 L 248.023438 35.402344 L 248.152344 35.664062 C 248.222656 35.8125 253.355469 46.792969 259.539062 60.070312 Z M 207.238281 118.910156 C 208.160156 121.8125 208.929688 124.261719 208.953125 124.355469 C 208.992188 124.484375 207.207031 123.398438 201.617188 119.894531 C 197.546875 117.34375 194.253906 115.242188 194.285156 115.210938 C 194.390625 115.121094 198.121094 114.574219 204.460938 113.71875 C 204.90625 113.65625 205.335938 113.617188 205.417969 113.625 C 205.546875 113.632812 205.804688 114.402344 207.238281 118.910156 Z M 292.960938 113.910156 C 294.816406 114.140625 298.605469 114.679688 300.691406 115.003906 C 301.34375 115.105469 301.792969 115.203125 301.777344 115.25 C 301.730469 115.34375 287.144531 124.476562 287.105469 124.429688 C 287.078125 124.398438 290.421875 113.800781 290.5 113.664062 C 290.53125 113.625 290.675781 113.609375 290.832031 113.632812 C 290.984375 113.65625 291.945312 113.777344 292.960938 113.910156 Z M 292.960938 113.910156 "/>
<path style=" stroke:none;fill-rule:nonzero;fill:rgb(0%,0%,0%);fill-opacity:1;" d="M 451.191406 323.226562 C 446.578125 323.648438 442.875 325.1875 440.347656 327.722656 C 438.167969 329.910156 437.085938 332.363281 436.953125 335.433594 C 436.675781 341.5 440.492188 345.742188 448.921875 348.753906 C 452.5 350.03125 454.246094 350.957031 455.253906 352.113281 C 456.847656 353.921875 456.539062 356.679688 454.585938 358.074219 C 453.96875 358.503906 453.484375 358.742188 452.722656 358.980469 C 449.976562 359.851562 445.761719 359.421875 440.652344 357.75 C 439.355469 357.324219 437.976562 356.800781 436.976562 356.347656 C 436.683594 356.21875 436.429688 356.109375 436.414062 356.109375 C 436.398438 356.109375 436.382812 358.050781 436.382812 360.421875 L 436.382812 364.734375 L 436.777344 364.933594 C 438 365.550781 440.390625 366.3125 442.421875 366.730469 C 444.492188 367.152344 445.753906 367.285156 448.160156 367.328125 C 451.863281 367.398438 454.230469 367.089844 456.976562 366.183594 C 461.984375 364.527344 465.09375 361.277344 466.085938 356.648438 C 466.238281 355.941406 466.261719 355.625 466.261719 354.066406 C 466.261719 352.15625 466.167969 351.441406 465.722656 350.101562 C 464.894531 347.589844 463.023438 345.402344 460.230469 343.671875 C 459.285156 343.085938 457.371094 342.15625 456.152344 341.675781 C 452.722656 340.335938 451.769531 339.945312 450.800781 339.472656 C 449.414062 338.8125 448.714844 338.359375 448.0625 337.703125 C 446.621094 336.261719 446.601562 334.199219 448 332.796875 C 448.984375 331.804688 450.367188 331.257812 452.335938 331.082031 C 455.085938 330.824219 459.960938 331.726562 463.332031 333.097656 C 463.746094 333.265625 464.09375 333.390625 464.109375 333.382812 C 464.132812 333.34375 464.546875 325.828125 464.539062 325.488281 C 464.539062 325.257812 464.515625 325.234375 463.753906 324.933594 C 461.691406 324.117188 459.675781 323.625 457.152344 323.339844 C 455.914062 323.195312 452.285156 323.125 451.191406 323.226562 Z M 451.191406 323.226562 "/>
<path style=" stroke:none;fill-rule:nonzero;fill:rgb(0%,0%,0%);fill-opacity:1;" d="M 485 323.199219 C 483.578125 323.332031 482.921875 323.417969 482.230469 323.542969 C 476.4375 324.625 472.332031 327.753906 470.855469 332.210938 C 470.222656 334.097656 470.085938 336.234375 470.460938 338.164062 C 471.078125 341.386719 473.105469 344.019531 476.609375 346.160156 C 478.207031 347.136719 480.183594 348.03125 482.730469 348.929688 C 486.382812 350.226562 488.222656 351.351562 489.105469 352.820312 C 489.574219 353.613281 489.730469 354.722656 489.5 355.707031 C 489.085938 357.480469 487.617188 358.683594 485.230469 359.207031 C 484.515625 359.359375 484.214844 359.375 482.652344 359.375 C 480.761719 359.375 479.90625 359.273438 477.9375 358.835938 C 475.285156 358.25 471.816406 357.101562 470.238281 356.300781 C 470.023438 356.191406 469.832031 356.109375 469.808594 356.109375 C 469.785156 356.109375 469.769531 358.066406 469.769531 360.453125 L 469.769531 364.789062 L 470.484375 365.105469 C 472.953125 366.191406 476.191406 366.976562 479.460938 367.269531 C 480.597656 367.378906 483.785156 367.378906 484.921875 367.277344 C 493.683594 366.472656 499.085938 362 499.609375 355.09375 C 499.960938 350.394531 498.140625 346.707031 494.152344 344.058594 C 492.53125 342.976562 491.140625 342.308594 488.175781 341.167969 C 483.953125 339.542969 482.398438 338.75 481.347656 337.664062 C 480.570312 336.863281 480.253906 336.007812 480.332031 334.914062 C 480.453125 333.113281 482.039062 331.734375 484.578125 331.21875 C 485.5625 331.019531 487.644531 331 489.105469 331.1875 C 491.660156 331.519531 494.730469 332.296875 496.761719 333.128906 C 497.117188 333.273438 497.414062 333.390625 497.421875 333.375 C 497.460938 333.335938 497.90625 325.34375 497.878906 325.289062 C 497.863281 325.265625 497.398438 325.066406 496.859375 324.851562 C 493.9375 323.703125 490.492188 323.125 486.691406 323.164062 C 485.910156 323.164062 485.144531 323.1875 485 323.199219 Z M 485 323.199219 "/>
<path style=" stroke:none;fill-rule:nonzero;fill:rgb(0%,0%,0%);fill-opacity:1;" d="M 108.039062 323.609375 C 105.261719 323.734375 102.96875 323.925781 100.675781 324.234375 L 99.460938 324.402344 L 99.460938 366.660156 L 109.230469 366.660156 L 109.230469 351.3125 L 109.5625 351.367188 C 111.382812 351.667969 114.515625 351.613281 117.039062 351.25 C 122.277344 350.496094 126.4375 348.292969 128.554688 345.136719 C 129.945312 343.0625 130.671875 340.667969 130.8125 337.625 C 130.992188 333.835938 129.699219 330.285156 127.285156 327.921875 C 124.832031 325.527344 121.722656 324.261719 116.90625 323.71875 C 115.621094 323.570312 110.398438 323.507812 108.039062 323.609375 Z M 115.230469 331.039062 C 118.683594 331.574219 120.667969 333.421875 121 336.429688 C 121.15625 337.886719 120.828125 339.472656 120.136719 340.667969 C 119.714844 341.402344 118.667969 342.417969 117.894531 342.855469 C 117.117188 343.304688 116.15625 343.65625 115.191406 343.863281 C 113.890625 344.148438 110.492188 344.164062 109.40625 343.894531 L 109.230469 343.847656 L 109.230469 337.546875 C 109.230469 332.21875 109.246094 331.242188 109.339844 331.210938 C 109.460938 331.164062 110.476562 331.019531 110.960938 330.980469 C 111.914062 330.894531 114.5625 330.933594 115.230469 331.039062 Z M 115.230469 331.039062 "/>
<path style=" stroke:none;fill-rule:nonzero;fill:rgb(0%,0%,0%);fill-opacity:1;" d="M 307.539062 323.609375 C 304.777344 323.738281 301.515625 324.039062 299.683594 324.339844 C 299.285156 324.402344 298.9375 324.457031 298.90625 324.457031 C 298.867188 324.457031 298.847656 333.953125 298.847656 345.558594 L 298.847656 366.660156 L 308.617188 366.660156 L 308.617188 349.855469 L 310.90625 349.886719 C 313.078125 349.925781 313.230469 349.933594 313.953125 350.125 C 315.222656 350.464844 316.121094 351.058594 316.847656 352.011719 C 317.738281 353.207031 318.117188 354.230469 319.039062 357.957031 C 320.046875 362.007812 320.898438 364.882812 321.492188 366.222656 L 321.683594 366.660156 L 331.851562 366.660156 L 331.738281 366.445312 C 331.398438 365.789062 330.691406 363.402344 329.617188 359.304688 C 328.238281 354.054688 327.921875 353.011719 327.300781 351.613281 C 326.640625 350.125 325.699219 348.753906 324.828125 348.007812 C 324.253906 347.515625 323.4375 346.984375 322.953125 346.78125 C 322.722656 346.683594 322.539062 346.566406 322.539062 346.519531 C 322.539062 346.46875 322.832031 346.304688 323.191406 346.152344 C 324.632812 345.542969 326.34375 344.335938 327.320312 343.25 C 329.507812 340.796875 330.46875 337.894531 330.160156 334.660156 C 329.847656 331.332031 328.613281 328.917969 326.292969 327.070312 C 323.90625 325.167969 321.046875 324.179688 316.617188 323.71875 C 315.199219 323.578125 309.746094 323.507812 307.539062 323.609375 Z M 315.308594 330.957031 C 318.3125 331.578125 319.9375 333.175781 320.308594 335.863281 C 320.460938 336.964844 320.253906 338.359375 319.800781 339.257812 C 318.875 341.085938 317.199219 342.199219 314.652344 342.679688 C 314 342.800781 313.5 342.824219 311.269531 342.824219 L 308.65625 342.824219 L 308.65625 331.121094 L 309.039062 331.027344 C 310.089844 330.765625 314.152344 330.71875 315.308594 330.957031 Z M 315.308594 330.957031 "/>
<path style=" stroke:none;fill-rule:nonzero;fill:rgb(0%,0%,0%);fill-opacity:1;" d="M 0 345.25 L 0 366.660156 L 8.386719 366.660156 L 8.386719 349.316406 C 8.386719 339.78125 8.398438 331.996094 8.429688 332.019531 C 8.453125 332.042969 11.335938 339.835938 14.847656 349.339844 L 21.214844 366.621094 L 24.746094 366.644531 L 28.269531 366.660156 L 34.652344 349.355469 L 41.039062 332.042969 L 41.0625 349.355469 L 41.078125 366.660156 L 49.539062 366.660156 L 49.539062 323.839844 L 35.421875 323.839844 L 30.160156 337.957031 C 27.269531 345.714844 24.859375 352.140625 24.816406 352.226562 C 24.746094 352.375 23.9375 350.265625 19.40625 338.136719 L 14.089844 323.878906 L 7.046875 323.855469 L 0 323.839844 Z M 0 345.25 "/>
<path style=" stroke:none;fill-rule:nonzero;fill:rgb(0%,0%,0%);fill-opacity:1;" d="M 66.816406 324.933594 C 65.886719 327.890625 53.847656 366.582031 53.847656 366.621094 C 53.847656 366.644531 56.148438 366.660156 58.953125 366.660156 C 62.96875 366.660156 64.070312 366.636719 64.097656 366.558594 C 64.113281 366.511719 64.800781 364.046875 65.613281 361.09375 L 67.109375 355.722656 L 79.660156 355.722656 L 81.214844 360.78125 C 82.070312 363.574219 82.824219 366.035156 82.882812 366.25 L 83.007812 366.660156 L 93.628906 366.660156 L 93.578125 366.453125 C 93.546875 366.328125 90.667969 357.238281 87.183594 346.253906 C 83.695312 335.261719 80.664062 325.71875 80.453125 325.046875 L 80.070312 323.839844 L 67.160156 323.839844 Z M 73.339844 331.210938 C 73.363281 331.289062 73.761719 332.84375 74.222656 334.660156 C 75.246094 338.695312 75.308594 338.921875 76.890625 344.1875 C 77.582031 346.503906 78.15625 348.421875 78.15625 348.445312 C 78.15625 348.46875 75.984375 348.484375 73.339844 348.484375 C 68.792969 348.484375 68.53125 348.476562 68.570312 348.347656 C 68.589844 348.277344 69.199219 346.1875 69.921875 343.710938 C 71.269531 339.105469 71.570312 337.941406 72.539062 333.699219 C 72.839844 332.363281 73.101562 331.226562 73.117188 331.171875 C 73.160156 331.035156 73.292969 331.054688 73.339844 331.210938 Z M 73.339844 331.210938 "/>
<path style=" stroke:none;fill-rule:nonzero;fill:rgb(0%,0%,0%);fill-opacity:1;" d="M 137.152344 345.25 L 137.152344 366.660156 L 164.386719 366.660156 L 164.386719 358.574219 L 155.714844 358.558594 L 147.039062 358.535156 L 147.015625 341.183594 L 147 323.839844 L 137.152344 323.839844 Z M 137.152344 345.25 "/>
<path style=" stroke:none;fill-rule:nonzero;fill:rgb(0%,0%,0%);fill-opacity:1;" d="M 170.230469 345.25 L 170.230469 366.660156 L 198.078125 366.660156 L 198.078125 358.726562 L 180.078125 358.726562 L 180.089844 353.660156 L 180.117188 348.597656 L 188.136719 348.578125 L 196.152344 348.5625 L 196.152344 340.707031 L 188.136719 340.691406 L 180.117188 340.667969 L 180.117188 331.8125 L 188.640625 331.789062 L 197.152344 331.773438 L 197.152344 323.839844 L 170.230469 323.839844 Z M 170.230469 345.25 "/>
<path style=" stroke:none;fill-rule:nonzero;fill:rgb(0%,0%,0%);fill-opacity:1;" d="M 218.660156 323.972656 C 218.683594 324.050781 221.007812 333.675781 223.839844 345.367188 L 228.976562 366.621094 L 234.40625 366.644531 L 239.832031 366.660156 L 239.953125 366.144531 C 240.015625 365.851562 240.96875 361.617188 242.070312 356.726562 C 243.167969 351.835938 244.152344 347.46875 244.261719 347.023438 C 244.769531 344.875 245.476562 341.160156 246.078125 337.546875 C 246.46875 335.191406 246.515625 334.953125 246.578125 335.015625 C 246.59375 335.039062 246.679688 335.65625 246.769531 336.394531 C 247.054688 338.867188 247.445312 341.492188 247.96875 344.441406 C 248.238281 345.980469 252.167969 365.828125 252.316406 366.375 L 252.394531 366.660156 L 257.746094 366.644531 L 263.097656 366.621094 L 268.699219 345.328125 C 271.785156 333.613281 274.308594 323.984375 274.308594 323.933594 C 274.308594 323.855469 273.277344 323.839844 269.292969 323.855469 L 264.285156 323.878906 L 262.5625 332.3125 C 260.578125 342.039062 258.929688 351.003906 258.347656 355.277344 C 258.269531 355.824219 258.179688 356.261719 258.140625 356.261719 C 258.109375 356.261719 258.078125 356.230469 258.078125 356.191406 C 258.078125 356.046875 257.367188 351.226562 257.066406 349.371094 C 256.492188 345.71875 256.300781 344.6875 253.746094 331.503906 L 252.269531 323.878906 L 241.746094 323.878906 L 239.878906 332.734375 C 237.214844 345.328125 236.246094 350.195312 235.492188 354.761719 C 235.230469 356.394531 235.191406 356.554688 235.125 356.488281 C 235.109375 356.46875 234.808594 354.753906 234.46875 352.683594 C 233.515625 346.929688 233.144531 344.875 231.105469 334.03125 C 230.078125 328.507812 229.230469 323.964844 229.230469 323.917969 C 229.230469 323.863281 227.445312 323.839844 223.929688 323.839844 C 218.921875 323.839844 218.628906 323.847656 218.660156 323.972656 Z M 218.660156 323.972656 "/>
<path style=" stroke:none;fill-rule:nonzero;fill:rgb(0%,0%,0%);fill-opacity:1;" d="M 280.691406 345.25 L 280.691406 366.660156 L 290.539062 366.660156 L 290.539062 323.839844 L 280.691406 323.839844 Z M 280.691406 345.25 "/>
<path style=" stroke:none;fill-rule:nonzero;fill:rgb(0%,0%,0%);fill-opacity:1;" d="M 337.308594 345.25 L 337.308594 366.660156 L 365.152344 366.660156 L 365.152344 358.726562 L 347.152344 358.726562 L 347.167969 353.660156 L 347.191406 348.597656 L 355.214844 348.578125 L 363.230469 348.5625 L 363.230469 340.707031 L 355.214844 340.691406 L 347.191406 340.667969 L 347.191406 331.8125 L 355.714844 331.789062 L 364.230469 331.773438 L 364.230469 323.839844 L 337.308594 323.839844 Z M 337.308594 345.25 "/>
<path style=" stroke:none;fill-rule:nonzero;fill:rgb(0%,0%,0%);fill-opacity:1;" d="M 370.921875 345.25 L 370.921875 366.660156 L 398.152344 366.660156 L 398.152344 358.574219 L 389.484375 358.558594 L 380.808594 358.535156 L 380.785156 341.183594 L 380.769531 323.839844 L 370.921875 323.839844 Z M 370.921875 345.25 "/>
<path style=" stroke:none;fill-rule:nonzero;fill:rgb(0%,0%,0%);fill-opacity:1;" d="M 404.074219 345.25 L 404.074219 366.660156 L 431.847656 366.660156 L 431.847656 358.726562 L 413.921875 358.726562 L 413.921875 348.5625 L 429.921875 348.5625 L 429.921875 340.707031 L 413.921875 340.707031 L 413.921875 331.773438 L 430.921875 331.773438 L 430.921875 323.839844 L 404.074219 323.839844 Z M 404.074219 345.25 "/>
</g>
</svg>
