<?xml version="1.0" encoding="UTF-8"?>
<svg xmlns="http://www.w3.org/2000/svg" xmlns:xlink="http://www.w3.org/1999/xlink" width="866px" height="637px" viewBox="0 0 866 637" version="1.1">
<g id="surface1">
<path style=" stroke:none;fill-rule:nonzero;fill:rgb(0%,0%,0%);fill-opacity:1;" d="M 416.214844 0.078125 C 376.164062 0.785156 340.136719 3.679688 303.433594 9.132812 C 238.191406 18.835938 175.890625 36.726562 124.171875 60.628906 C 114.964844 64.882812 105.253906 69.785156 97.605469 74.050781 C 91.554688 77.410156 85.175781 81.277344 85.359375 81.453125 C 85.519531 81.609375 134.9375 105.582031 135.097656 105.582031 C 135.175781 105.582031 136.214844 104.992188 137.402344 104.273438 C 145.542969 99.328125 157.277344 93.34375 169.535156 87.875 C 190.265625 78.636719 213.449219 70.332031 237.882812 63.402344 C 282.96875 50.605469 331.585938 42.59375 382.707031 39.527344 C 395.070312 38.792969 407.40625 38.367188 421.929688 38.179688 C 428.761719 38.085938 428.910156 38.085938 428.84375 38.339844 C 428.804688 38.484375 418.835938 59.910156 406.671875 85.957031 L 384.570312 133.320312 L 384.171875 133.253906 C 383.957031 133.214844 371.875 129.589844 357.324219 125.191406 C 342.777344 120.804688 330.867188 117.21875 330.851562 117.230469 C 330.839844 117.230469 334.25 128.003906 338.417969 141.160156 C 342.589844 154.316406 345.988281 165.089844 345.972656 165.117188 C 345.945312 165.128906 344.882812 165.207031 343.601562 165.289062 C 312.839844 167.261719 283.355469 172.472656 251.9375 181.5 C 227.25 188.589844 200.378906 198.722656 181.234375 208.148438 L 177.941406 209.773438 L 180.113281 210.535156 C 187.507812 213.160156 203.351562 219.492188 221.800781 227.210938 L 229.316406 230.34375 L 232.207031 229.023438 C 254.257812 219.027344 279.996094 210.800781 308.828125 204.5625 C 310.988281 204.09375 312.773438 203.722656 312.800781 203.75 C 312.824219 203.773438 312.984375 208.320312 313.160156 213.839844 C 313.332031 219.371094 313.503906 224.570312 313.546875 225.382812 L 313.597656 226.890625 L 284.488281 226.890625 C 268.488281 226.890625 255.402344 226.945312 255.429688 226.996094 C 255.457031 227.0625 264.78125 240.113281 276.160156 255.992188 C 287.550781 271.867188 296.863281 284.878906 296.878906 284.90625 C 296.890625 284.933594 290.015625 291.546875 281.582031 299.597656 C 263.71875 316.671875 265.0625 315.378906 265.128906 315.460938 C 265.167969 315.488281 284.460938 319.046875 307.988281 323.351562 C 331.53125 327.671875 350.742188 331.230469 350.691406 331.285156 C 350.636719 331.324219 349.304688 331.765625 347.730469 332.269531 C 329.824219 337.921875 308.28125 345.667969 294.507812 351.402344 C 287.644531 354.253906 279.492188 357.984375 276.453125 359.640625 C 275.46875 360.183594 275.46875 360.183594 275.839844 360.332031 C 276.453125 360.558594 287.964844 365.210938 295.90625 368.425781 C 305.40625 372.277344 314.464844 375.984375 320.339844 378.421875 L 324.988281 380.355469 L 329.066406 378.355469 C 335.769531 375.0625 341.65625 372.410156 349.265625 369.277344 L 350.597656 368.730469 L 381.734375 367.835938 C 398.867188 367.34375 412.910156 366.984375 412.960938 367.039062 C 413.003906 367.078125 410.628906 383.035156 407.671875 402.484375 L 402.304688 437.851562 L 401.359375 438.917969 C 399.121094 441.449219 397.308594 444.15625 395.761719 447.316406 C 393.804688 451.289062 392.816406 454.488281 392.136719 459.046875 C 391.804688 461.300781 391.804688 466.792969 392.136719 469.046875 C 393.003906 474.84375 394.871094 479.964844 397.800781 484.507812 C 399.691406 487.46875 402.808594 490.972656 405.527344 493.214844 C 410.269531 497.121094 416.28125 499.972656 422.15625 501.105469 C 426.859375 502.011719 432.507812 502.011719 437.050781 501.105469 C 448.480469 498.8125 458.261719 491.308594 463.375 480.910156 C 465.429688 476.738281 466.574219 472.859375 467.121094 468.246094 C 467.375 466.152344 467.332031 461.460938 467.054688 459.3125 C 466.027344 451.609375 463.042969 444.96875 457.96875 439.105469 L 456.863281 437.824219 L 451.492188 402.445312 L 446.125 367.0625 L 447.121094 367.023438 C 447.667969 367.011719 461.722656 367.382812 478.339844 367.851562 L 508.554688 368.71875 L 511.980469 370.144531 C 518.441406 372.835938 524.371094 375.515625 530.523438 378.542969 L 534.203125 380.339844 L 537.121094 379.128906 C 544.40625 376.089844 560.570312 369.503906 575.34375 363.53125 C 579.742188 361.773438 583.417969 360.277344 583.511719 360.210938 C 583.699219 360.105469 577.902344 357.199219 573.757812 355.332031 C 558.742188 348.535156 536.265625 340.230469 510.808594 332.058594 C 509.382812 331.589844 508.300781 331.203125 508.410156 331.175781 C 511.167969 330.65625 593.863281 315.539062 593.957031 315.539062 C 594.035156 315.539062 594.074219 315.488281 594.050781 315.433594 C 594.035156 315.367188 587.027344 308.636719 578.488281 300.476562 C 569.949219 292.316406 562.808594 285.492188 562.605469 285.292969 L 562.246094 284.945312 L 583.03125 255.953125 L 603.800781 226.957031 L 574.691406 226.917969 L 545.566406 226.890625 L 545.660156 224.519531 C 545.699219 223.222656 545.875 218.039062 546.03125 213 C 546.191406 207.960938 546.351562 203.816406 546.394531 203.773438 C 546.417969 203.734375 548.363281 204.121094 550.710938 204.640625 C 579.367188 210.867188 604.988281 219.050781 626.652344 228.902344 L 629.847656 230.355469 L 633.511719 228.808594 C 653.152344 220.546875 674.1875 212.132812 680.144531 210.160156 L 681.277344 209.773438 L 678.476562 208.402344 C 661.25 199.949219 638.320312 191.015625 616.59375 184.296875 C 582.417969 173.742188 549.152344 167.433594 516.601562 165.367188 C 514.777344 165.25 513.257812 165.128906 513.230469 165.101562 C 513.191406 165.074219 516.574219 154.332031 520.71875 141.238281 C 524.875 128.148438 528.261719 117.390625 528.234375 117.335938 C 528.207031 117.269531 516.324219 120.816406 501.8125 125.203125 C 487.304688 129.574219 475.246094 133.203125 475.019531 133.242188 L 474.621094 133.320312 L 452.425781 85.785156 C 434.210938 46.777344 430.269531 38.234375 430.441406 38.152344 C 430.695312 38.058594 452.464844 38.339844 458.714844 38.527344 C 499.722656 39.726562 534.988281 42.9375 568.5625 48.539062 C 608.652344 55.214844 644.011719 65.09375 675.945312 78.519531 C 689.921875 84.398438 701.207031 89.929688 720.910156 100.582031 C 730.171875 105.582031 730.183594 105.582031 730.382812 105.582031 C 730.625 105.582031 780.199219 82.238281 780.199219 82.132812 C 780.199219 82.011719 774.976562 78.917969 771.738281 77.117188 C 751.808594 66.015625 726.015625 54.507812 699.621094 44.925781 C 635.671875 21.714844 564.605469 7.160156 490.421875 2.066406 C 477.980469 1.214844 466.640625 0.679688 451.851562 0.253906 C 447.347656 0.132812 420.984375 0 416.214844 0.078125 Z M 449.519531 103.980469 C 460.246094 126.960938 469.027344 145.785156 469.039062 145.8125 C 469.050781 145.824219 478.816406 142.894531 490.742188 139.292969 C 502.679688 135.695312 512.457031 132.789062 512.5 132.828125 C 512.539062 132.855469 504.984375 156.785156 495.710938 185.992188 C 486.453125 215.199219 478.882812 239.101562 478.898438 239.128906 C 478.910156 239.140625 491.78125 231.117188 507.476562 221.292969 C 523.183594 211.46875 536.039062 203.441406 536.039062 203.453125 C 536.054688 203.480469 535.839844 210.386719 535.574219 218.824219 C 535.292969 227.25 535.054688 234.835938 535.027344 235.664062 L 534.988281 237.15625 L 559.34375 237.15625 C 572.734375 237.15625 583.683594 237.183594 583.683594 237.222656 C 583.683594 237.25 575.785156 248.300781 566.136719 261.765625 L 548.589844 286.253906 L 549.550781 287.132812 C 550.070312 287.613281 555.414062 292.71875 561.433594 298.476562 C 571.066406 307.703125 572.320312 308.957031 572.066406 309.035156 C 571.894531 309.089844 553.027344 312.554688 530.125 316.753906 C 507.222656 320.941406 488.476562 324.378906 488.449219 324.40625 C 488.4375 324.417969 492.859375 332.070312 498.28125 341.402344 C 503.71875 350.734375 508.140625 358.386719 508.117188 358.398438 C 508.089844 358.414062 491.449219 357.960938 471.117188 357.371094 C 450.800781 356.800781 434.144531 356.332031 434.132812 356.359375 C 434.121094 356.386719 436.582031 372.824219 439.636719 392.886719 C 442.6875 412.960938 445.136719 429.414062 445.097656 429.453125 C 445.058594 429.492188 444.351562 429.253906 443.511719 428.933594 C 438.914062 427.132812 434.570312 426.320312 429.601562 426.320312 C 424.660156 426.320312 420.261719 427.132812 415.773438 428.878906 C 414.828125 429.253906 414.042969 429.519531 414.015625 429.492188 C 414 429.480469 416.480469 413.027344 419.515625 392.964844 C 422.566406 372.890625 425.019531 356.441406 424.980469 356.398438 C 424.941406 356.359375 408.3125 356.800781 388.019531 357.371094 C 367.730469 357.960938 351.101562 358.414062 351.078125 358.386719 C 351.050781 358.359375 355.472656 350.707031 360.894531 341.375 L 370.769531 324.40625 L 370.339844 324.3125 C 370.101562 324.273438 351.328125 320.832031 328.613281 316.671875 C 305.898438 312.527344 287.207031 309.089844 287.074219 309.035156 C 286.871094 308.957031 289.042969 306.808594 298.371094 297.878906 C 304.726562 291.785156 310.066406 286.691406 310.242188 286.53125 L 310.574219 286.253906 L 293.054688 261.804688 C 283.410156 248.351562 275.519531 237.316406 275.519531 237.25 C 275.519531 237.195312 286.460938 237.15625 299.835938 237.15625 L 324.152344 237.15625 L 324.152344 236.316406 C 324.152344 235.863281 323.910156 228.316406 323.632812 219.558594 C 323.335938 210.800781 323.125 203.601562 323.152344 203.574219 C 323.179688 203.546875 323.285156 203.5625 323.378906 203.601562 C 323.472656 203.640625 336.289062 211.652344 351.863281 221.398438 C 367.4375 231.144531 380.1875 239.074219 380.214844 239.035156 C 380.226562 238.980469 372.671875 215.066406 363.414062 185.886719 C 354.152344 156.71875 346.625 132.828125 346.679688 132.800781 C 346.71875 132.789062 356.5 135.707031 368.394531 139.292969 C 380.292969 142.878906 390.074219 145.785156 390.113281 145.734375 C 390.179688 145.664062 426.953125 66.972656 429.242188 62 L 429.574219 61.28125 L 429.800781 61.734375 C 429.921875 61.988281 438.808594 81 449.519531 103.980469 Z M 358.9375 205.828125 C 360.535156 210.855469 361.867188 215.09375 361.90625 215.253906 C 361.976562 215.480469 358.882812 213.601562 349.199219 207.535156 C 342.148438 203.121094 336.449219 199.480469 336.5 199.429688 C 336.6875 199.269531 343.148438 198.324219 354.128906 196.84375 C 354.898438 196.734375 355.644531 196.667969 355.78125 196.683594 C 356.007812 196.695312 356.457031 198.03125 358.9375 205.828125 Z M 507.410156 197.175781 C 510.621094 197.574219 517.1875 198.507812 520.800781 199.070312 C 521.929688 199.242188 522.703125 199.414062 522.675781 199.496094 C 522.597656 199.65625 497.335938 215.464844 497.269531 215.386719 C 497.21875 215.332031 503.011719 196.988281 503.144531 196.75 C 503.199219 196.683594 503.453125 196.65625 503.71875 196.695312 C 503.984375 196.734375 505.652344 196.949219 507.410156 197.175781 Z M 507.410156 197.175781 "/>
<path style=" stroke:none;fill-rule:nonzero;fill:rgb(0%,0%,0%);fill-opacity:1;" d="M 781.464844 559.496094 C 773.472656 560.226562 767.0625 562.894531 762.679688 567.28125 C 758.910156 571.066406 757.03125 575.316406 756.804688 580.625 C 756.324219 591.128906 762.933594 598.472656 777.535156 603.6875 C 783.730469 605.898438 786.753906 607.5 788.5 609.5 C 791.257812 612.632812 790.726562 617.402344 787.339844 619.816406 C 786.273438 620.5625 785.433594 620.976562 784.117188 621.390625 C 779.359375 622.894531 772.058594 622.148438 763.210938 619.257812 C 760.960938 618.523438 758.574219 617.617188 756.84375 616.832031 C 756.335938 616.605469 755.898438 616.417969 755.871094 616.417969 C 755.84375 616.417969 755.816406 619.777344 755.816406 623.882812 L 755.816406 631.347656 L 756.496094 631.695312 C 758.617188 632.761719 762.757812 634.082031 766.277344 634.800781 C 769.859375 635.535156 772.046875 635.761719 776.214844 635.839844 C 782.625 635.960938 786.726562 635.425781 791.484375 633.855469 C 800.15625 630.988281 805.539062 625.363281 807.257812 617.351562 C 807.523438 616.125 807.566406 615.578125 807.566406 612.882812 C 807.566406 609.578125 807.40625 608.339844 806.632812 606.019531 C 805.195312 601.671875 801.957031 597.886719 797.121094 594.886719 C 795.480469 593.875 792.164062 592.261719 790.058594 591.433594 C 784.117188 589.117188 782.464844 588.4375 780.785156 587.621094 C 778.386719 586.476562 777.175781 585.691406 776.042969 584.554688 C 773.550781 582.0625 773.511719 578.492188 775.9375 576.066406 C 777.640625 574.34375 780.039062 573.398438 783.449219 573.09375 C 788.207031 572.652344 796.652344 574.210938 802.488281 576.585938 C 803.207031 576.878906 803.808594 577.089844 803.835938 577.078125 C 803.875 577.011719 804.59375 564 804.582031 563.414062 C 804.582031 563.015625 804.539062 562.972656 803.222656 562.453125 C 799.652344 561.039062 796.160156 560.1875 791.789062 559.695312 C 789.644531 559.441406 783.355469 559.320312 781.464844 559.496094 Z M 781.464844 559.496094 "/>
<path style=" stroke:none;fill-rule:nonzero;fill:rgb(0%,0%,0%);fill-opacity:1;" d="M 840.019531 559.453125 C 837.554688 559.679688 836.421875 559.828125 835.222656 560.042969 C 825.191406 561.921875 818.078125 567.332031 815.519531 575.050781 C 814.425781 578.316406 814.1875 582.011719 814.839844 585.355469 C 815.90625 590.929688 819.421875 595.488281 825.484375 599.195312 C 828.253906 600.886719 831.679688 602.433594 836.089844 603.992188 C 842.417969 606.234375 845.601562 608.179688 847.132812 610.726562 C 847.945312 612.097656 848.214844 614.019531 847.8125 615.722656 C 847.09375 618.789062 844.550781 620.871094 840.417969 621.777344 C 839.179688 622.042969 838.660156 622.070312 835.957031 622.070312 C 832.679688 622.070312 831.199219 621.894531 827.789062 621.136719 C 823.191406 620.125 817.183594 618.136719 814.453125 616.75 C 814.078125 616.5625 813.746094 616.417969 813.707031 616.417969 C 813.667969 616.417969 813.640625 619.804688 813.640625 623.9375 L 813.640625 631.441406 L 814.878906 631.988281 C 819.15625 633.867188 824.765625 635.226562 830.425781 635.734375 C 832.398438 635.921875 837.914062 635.921875 839.886719 635.746094 C 855.0625 634.359375 864.414062 626.617188 865.320312 614.65625 C 865.933594 606.527344 862.777344 600.140625 855.875 595.554688 C 853.0625 593.6875 850.652344 592.527344 845.523438 590.554688 C 838.207031 587.742188 835.515625 586.371094 833.691406 584.488281 C 832.347656 583.101562 831.800781 581.625 831.933594 579.730469 C 832.144531 576.613281 834.890625 574.226562 839.289062 573.332031 C 840.992188 572.984375 844.601562 572.957031 847.132812 573.277344 C 851.558594 573.851562 856.875 575.199219 860.390625 576.636719 C 861.003906 576.890625 861.523438 577.089844 861.535156 577.066406 C 861.601562 576.996094 862.375 563.160156 862.324219 563.066406 C 862.296875 563.027344 861.496094 562.679688 860.5625 562.308594 C 855.5 560.320312 849.53125 559.320312 842.949219 559.386719 C 841.59375 559.386719 840.273438 559.429688 840.019531 559.453125 Z M 840.019531 559.453125 "/>
<path style=" stroke:none;fill-rule:nonzero;fill:rgb(0%,0%,0%);fill-opacity:1;" d="M 187.121094 560.160156 C 182.3125 560.375 178.34375 560.707031 174.371094 561.242188 L 172.265625 561.535156 L 172.265625 634.679688 L 189.1875 634.679688 L 189.1875 608.113281 L 189.761719 608.207031 C 192.917969 608.726562 198.339844 608.632812 202.710938 608.003906 C 211.785156 606.699219 218.992188 602.886719 222.65625 597.421875 C 225.066406 593.835938 226.320312 589.6875 226.570312 584.421875 C 226.878906 577.863281 224.640625 571.71875 220.457031 567.625 C 216.207031 563.480469 210.824219 561.292969 202.484375 560.347656 C 200.257812 560.09375 191.210938 559.988281 187.121094 560.160156 Z M 199.578125 573.023438 C 205.5625 573.945312 209 577.144531 209.570312 582.355469 C 209.839844 584.875 209.277344 587.621094 208.078125 589.6875 C 207.347656 590.957031 205.535156 592.714844 204.191406 593.476562 C 202.84375 594.25 201.179688 594.859375 199.511719 595.222656 C 197.261719 595.714844 191.371094 595.742188 189.492188 595.273438 L 189.1875 595.195312 L 189.1875 584.289062 C 189.1875 575.066406 189.214844 573.371094 189.375 573.320312 C 189.585938 573.238281 191.347656 572.984375 192.183594 572.917969 C 193.835938 572.773438 198.421875 572.839844 199.578125 573.023438 Z M 199.578125 573.023438 "/>
<path style=" stroke:none;fill-rule:nonzero;fill:rgb(0%,0%,0%);fill-opacity:1;" d="M 532.65625 560.160156 C 527.875 560.386719 522.226562 560.90625 519.054688 561.425781 C 518.359375 561.535156 517.761719 561.628906 517.707031 561.628906 C 517.640625 561.628906 517.601562 578.0625 517.601562 598.152344 L 517.601562 634.679688 L 534.523438 634.679688 L 534.523438 605.59375 L 538.492188 605.644531 C 542.25 605.710938 542.515625 605.726562 543.769531 606.058594 C 545.964844 606.644531 547.523438 607.671875 548.777344 609.324219 C 550.324219 611.390625 550.976562 613.164062 552.574219 619.617188 C 554.320312 626.628906 555.796875 631.601562 556.824219 633.921875 L 557.15625 634.679688 L 574.769531 634.679688 L 574.570312 634.308594 C 573.984375 633.175781 572.757812 629.042969 570.894531 621.949219 C 568.507812 612.859375 567.960938 611.058594 566.882812 608.632812 C 565.738281 606.058594 564.113281 603.6875 562.605469 602.394531 C 561.609375 601.539062 560.195312 600.621094 559.355469 600.273438 C 558.957031 600.101562 558.636719 599.898438 558.636719 599.820312 C 558.636719 599.726562 559.144531 599.445312 559.769531 599.179688 C 562.261719 598.128906 565.230469 596.035156 566.921875 594.15625 C 570.707031 589.914062 572.371094 584.890625 571.839844 579.289062 C 571.292969 573.53125 569.160156 569.347656 565.136719 566.148438 C 561.007812 562.855469 556.050781 561.148438 548.378906 560.347656 C 545.925781 560.109375 536.480469 559.988281 532.65625 560.160156 Z M 546.113281 572.878906 C 551.320312 573.957031 554.132812 576.71875 554.773438 581.371094 C 555.039062 583.277344 554.679688 585.691406 553.894531 587.25 C 552.292969 590.410156 549.390625 592.339844 544.980469 593.167969 C 543.847656 593.382812 542.980469 593.421875 539.117188 593.421875 L 534.589844 593.421875 L 534.589844 573.160156 L 535.253906 573 C 537.078125 572.546875 544.113281 572.464844 546.113281 572.878906 Z M 546.113281 572.878906 "/>
<path style=" stroke:none;fill-rule:nonzero;fill:rgb(0%,0%,0%);fill-opacity:1;" d="M 0 597.621094 L 0 634.679688 L 14.523438 634.679688 L 14.523438 604.660156 C 14.523438 588.15625 14.546875 574.679688 14.601562 574.71875 C 14.640625 574.757812 19.636719 588.25 25.714844 604.699219 L 36.746094 634.613281 L 42.859375 634.652344 L 48.960938 634.679688 L 60.019531 604.726562 L 71.078125 574.757812 L 71.117188 604.726562 L 71.144531 634.679688 L 85.800781 634.679688 L 85.800781 560.5625 L 61.351562 560.5625 L 52.238281 584.996094 C 47.230469 598.421875 43.058594 609.550781 42.980469 609.699219 C 42.859375 609.953125 41.460938 606.300781 33.613281 585.304688 L 24.40625 560.628906 L 12.203125 560.585938 L 0 560.5625 Z M 0 597.621094 "/>
<path style=" stroke:none;fill-rule:nonzero;fill:rgb(0%,0%,0%);fill-opacity:1;" d="M 115.722656 562.453125 C 114.113281 567.574219 93.261719 634.546875 93.261719 634.613281 C 93.261719 634.652344 97.246094 634.679688 102.109375 634.679688 C 109.0625 634.679688 110.96875 634.640625 111.019531 634.507812 C 111.046875 634.425781 112.234375 630.160156 113.644531 625.042969 L 116.230469 615.75 L 137.972656 615.75 L 140.664062 624.507812 C 142.144531 629.335938 143.449219 633.601562 143.554688 633.972656 L 143.769531 634.679688 L 162.167969 634.679688 L 162.074219 634.320312 C 162.023438 634.105469 157.039062 618.375 151.003906 599.355469 C 144.957031 580.332031 139.707031 563.8125 139.347656 562.652344 L 138.679688 560.5625 L 116.324219 560.5625 Z M 127.023438 573.320312 C 127.0625 573.453125 127.753906 576.144531 128.554688 579.289062 C 130.328125 586.277344 130.433594 586.664062 133.175781 595.78125 C 134.375 599.792969 135.363281 603.113281 135.363281 603.152344 C 135.363281 603.191406 131.605469 603.21875 127.023438 603.21875 C 119.148438 603.21875 118.695312 603.207031 118.761719 602.980469 C 118.800781 602.859375 119.855469 599.246094 121.105469 594.953125 C 123.4375 586.984375 123.957031 584.96875 125.636719 577.625 C 126.15625 575.316406 126.609375 573.34375 126.636719 573.253906 C 126.714844 573.011719 126.941406 573.050781 127.023438 573.320312 Z M 127.023438 573.320312 "/>
<path style=" stroke:none;fill-rule:nonzero;fill:rgb(0%,0%,0%);fill-opacity:1;" d="M 237.550781 597.621094 L 237.550781 634.679688 L 284.714844 634.679688 L 284.714844 620.683594 L 269.699219 620.65625 L 254.671875 620.617188 L 254.628906 590.582031 L 254.605469 560.5625 L 237.550781 560.5625 Z M 237.550781 597.621094 "/>
<path style=" stroke:none;fill-rule:nonzero;fill:rgb(0%,0%,0%);fill-opacity:1;" d="M 294.839844 597.621094 L 294.839844 634.679688 L 343.070312 634.679688 L 343.070312 620.949219 L 311.894531 620.949219 L 311.917969 612.179688 L 311.960938 603.417969 L 325.855469 603.378906 L 339.738281 603.351562 L 339.738281 589.753906 L 325.855469 589.730469 L 311.960938 589.6875 L 311.960938 574.359375 L 326.722656 574.320312 L 341.46875 574.292969 L 341.46875 560.5625 L 294.839844 560.5625 Z M 294.839844 597.621094 "/>
<path style=" stroke:none;fill-rule:nonzero;fill:rgb(0%,0%,0%);fill-opacity:1;" d="M 378.722656 560.789062 C 378.761719 560.921875 382.785156 577.585938 387.6875 597.820312 L 396.589844 634.613281 L 405.992188 634.652344 L 415.386719 634.679688 L 415.601562 633.789062 C 415.707031 633.28125 417.359375 625.949219 419.265625 617.484375 C 421.167969 609.019531 422.875 601.460938 423.0625 600.6875 C 423.941406 596.96875 425.167969 590.542969 426.207031 584.289062 C 426.882812 580.210938 426.964844 579.796875 427.070312 579.902344 C 427.097656 579.945312 427.246094 581.011719 427.40625 582.289062 C 427.898438 586.570312 428.578125 591.117188 429.484375 596.222656 C 429.949219 598.886719 436.757812 633.242188 437.011719 634.1875 L 437.144531 634.679688 L 446.417969 634.652344 L 455.6875 634.613281 L 465.386719 597.753906 C 470.730469 577.476562 475.101562 560.8125 475.101562 560.722656 C 475.101562 560.585938 473.316406 560.5625 466.414062 560.585938 L 457.742188 560.628906 L 454.757812 575.226562 C 451.320312 592.0625 448.46875 607.578125 447.457031 614.976562 C 447.324219 615.925781 447.164062 616.683594 447.097656 616.683594 C 447.042969 616.683594 446.988281 616.628906 446.988281 616.5625 C 446.988281 616.3125 445.761719 607.964844 445.242188 604.753906 C 444.246094 598.433594 443.910156 596.648438 439.488281 573.824219 L 436.929688 560.628906 L 418.703125 560.628906 L 415.46875 575.957031 C 410.855469 597.753906 409.179688 606.179688 407.871094 614.085938 C 407.417969 616.910156 407.351562 617.191406 407.234375 617.070312 C 407.207031 617.042969 406.6875 614.070312 406.101562 610.484375 C 404.449219 600.527344 403.808594 596.96875 400.277344 578.199219 C 398.492188 568.640625 397.027344 560.773438 397.027344 560.695312 C 397.027344 560.601562 393.9375 560.5625 387.847656 560.5625 C 379.175781 560.5625 378.667969 560.574219 378.722656 560.789062 Z M 378.722656 560.789062 "/>
<path style=" stroke:none;fill-rule:nonzero;fill:rgb(0%,0%,0%);fill-opacity:1;" d="M 486.160156 597.621094 L 486.160156 634.679688 L 503.210938 634.679688 L 503.210938 560.5625 L 486.160156 560.5625 Z M 486.160156 597.621094 "/>
<path style=" stroke:none;fill-rule:nonzero;fill:rgb(0%,0%,0%);fill-opacity:1;" d="M 584.21875 597.621094 L 584.21875 634.679688 L 632.445312 634.679688 L 632.445312 620.949219 L 601.269531 620.949219 L 601.296875 612.179688 L 601.335938 603.417969 L 615.234375 603.378906 L 629.117188 603.351562 L 629.117188 589.753906 L 615.234375 589.730469 L 601.335938 589.6875 L 601.335938 574.359375 L 616.097656 574.320312 L 630.847656 574.292969 L 630.847656 560.5625 L 584.21875 560.5625 Z M 584.21875 597.621094 "/>
<path style=" stroke:none;fill-rule:nonzero;fill:rgb(0%,0%,0%);fill-opacity:1;" d="M 642.4375 597.621094 L 642.4375 634.679688 L 689.601562 634.679688 L 689.601562 620.683594 L 674.585938 620.65625 L 659.558594 620.617188 L 659.519531 590.582031 L 659.492188 560.5625 L 642.4375 560.5625 Z M 642.4375 597.621094 "/>
<path style=" stroke:none;fill-rule:nonzero;fill:rgb(0%,0%,0%);fill-opacity:1;" d="M 699.859375 597.621094 L 699.859375 634.679688 L 747.957031 634.679688 L 747.957031 620.949219 L 716.914062 620.949219 L 716.914062 603.351562 L 744.625 603.351562 L 744.625 589.753906 L 716.914062 589.753906 L 716.914062 574.292969 L 746.359375 574.292969 L 746.359375 560.5625 L 699.859375 560.5625 Z M 699.859375 597.621094 "/>
</g>
</svg>
